<?xml version="1.0" encoding="utf-8"?>
<!-- Generator: Adobe Illustrator 16.0.0, SVG Export Plug-In . SVG Version: 6.00 Build 0)  -->
<!DOCTYPE svg PUBLIC "-//W3C//DTD SVG 1.1//EN" "http://www.w3.org/Graphics/SVG/1.1/DTD/svg11.dtd">
<svg version="1.1" id="Layer_1" xmlns="http://www.w3.org/2000/svg" xmlns:xlink="http://www.w3.org/1999/xlink" x="0px" y="0px"
	 width="867.43px" height="71.836px" viewBox="0 0 867.43 71.836" enable-background="new 0 0 867.43 71.836" xml:space="preserve">
<g id="_x31_5">
	<g id="_x30_5_7_">
		<g>
			<g>
				<g>
					<linearGradient id="SVGID_1_" gradientUnits="userSpaceOnUse" x1="0" y1="35.3457" x2="867.4297" y2="35.3457">
						<stop  offset="0" style="stop-color:#44FFFF"/>
						<stop  offset="0.0367" style="stop-color:#4BF8FF"/>
						<stop  offset="0.0902" style="stop-color:#5FE5FF"/>
						<stop  offset="0.1542" style="stop-color:#7FC5FF"/>
						<stop  offset="0.2261" style="stop-color:#AB98FF"/>
						<stop  offset="0.3038" style="stop-color:#E460FF"/>
						<stop  offset="0.338" style="stop-color:#FF45FF"/>
					</linearGradient>
					<path fill="url(#SVGID_1_)" d="M34.827,70.692l12.995-17.881h17.465c4.158,0,9.045,0,12.372,0.209
						c-1.871-2.495-4.782-6.759-7.069-10.085l-12.475-18.4L25.471,70.692H0L44.6,7.797C47.511,3.742,51.772,0,58.529,0
						c6.446,0,10.708,3.43,13.723,7.797l43.456,62.895H34.827z M196.496,70.692h-65.911c-5.406,0-9.98-3.119-9.98-8.732
						c0-3.223,1.767-6.341,4.678-8.629l25.366-19.96c11.54-9.252,16.53-12.683,19.128-14.555c-3.743,0.313-10.083,0.416-23.91,0.416
						h-27.861l13.723-18.088h64.143c5.406,0,9.98,3.118,9.98,8.733c0,3.118-1.767,6.341-4.678,8.524l-25.678,20.376
						c-11.435,9.045-16.218,12.58-18.92,14.451c3.43-0.207,16.737-0.416,27.652-0.416h25.263L196.496,70.692z M867.43,1.144
						l-10.173,12.788H303.894l-29.94,33.787v22.974H252.33v-23.08L209.915,1.144h27.654l16.634,19.336
						c2.183,2.495,8.004,8.836,9.459,10.917c1.353-1.976,3.743-4.99,8.732-11.021l15.802-19.232H867.43z"/>
				</g>
			</g>
			<g>
				<g>
					<path fill="#FFFFFF" d="M310.358,51.667c6.548,0,11.747,3.742,11.747,10.188c0,6.341-5.199,9.98-11.747,9.98
						c-6.446,0-11.644-3.639-11.644-9.98C298.715,55.41,303.912,51.667,310.358,51.667z M378.271,43.627
						c10.974,0,16.897,4.107,16.897,12.32c0,9.224-5.587,14.744-19.321,14.744h-41.944l8.954-11.579h34.067
						c3.298,0,4.78-0.942,4.78-3.3c0-2.29-1.482-3.232-4.78-3.232h-24.506c-11.581,0-16.899-5.183-16.899-12.926
						c0-8.483,5.654-14.003,19.321-14.003h39.116l-8.954,11.714h-31.239c-3.231,0-4.78,0.809-4.78,3.098
						c0,2.288,1.548,3.164,4.78,3.164H378.271z M465.798,48.138c0,16.091-11.04,23.295-32.92,23.295
						c-21.949,0-32.922-7.204-32.922-23.295c0-16.09,10.974-23.228,32.922-23.228C454.758,24.91,465.798,32.048,465.798,48.138z
						 M451.93,48.138c0-9.695-5.049-11.512-19.052-11.512s-19.053,1.817-19.053,11.512s5.05,11.581,19.053,11.581
						S451.93,57.833,451.93,48.138z M521.686,59.113l-9.021,11.579h-39.789V25.651h13.937v33.461H521.686z M584.842,51.033
						c0,13.601-9.358,20.4-28.076,20.4c-21.677,0-31.035-6.8-31.035-20.4V25.651h13.868v25.381c0,6.667,2.827,8.821,17.167,8.821
						c10.707,0,14.073-2.492,14.073-8.821V25.651h14.003V51.033z M648.671,25.651l-9.021,11.714h-16.091v33.326h-13.938V37.366
						h-21.138l9.021-11.714H648.671z M667.056,70.692h-13.935V25.651h13.935V70.692z M740.172,48.138
						c0,16.091-11.042,23.295-32.921,23.295c-21.947,0-32.924-7.204-32.924-23.295c0-16.09,10.977-23.228,32.924-23.228
						C729.13,24.91,740.172,32.048,740.172,48.138z M726.303,48.138c0-9.695-5.05-11.512-19.052-11.512
						c-14.005,0-19.055,1.817-19.055,11.512s5.05,11.581,19.055,11.581C721.253,59.719,726.303,57.833,726.303,48.138z
						 M787.308,69.009l-27.604-24.775v26.458h-12.656V33.326c0-5.992,3.636-8.416,7.607-8.416c1.683,0,3.366,0.405,5.589,2.424
						l27.601,24.776V25.651h12.726V62.95c0,5.992-3.636,8.483-7.676,8.483C791.146,71.433,789.462,71.028,787.308,69.009z
						 M850.529,43.627c10.974,0,16.9,4.107,16.9,12.32c0,9.224-5.589,14.744-19.324,14.744h-41.944l8.955-11.579h34.067
						c3.299,0,4.78-0.942,4.78-3.3c0-2.29-1.481-3.232-4.78-3.232h-24.507c-11.578,0-16.897-5.183-16.897-12.926
						c0-8.483,5.654-14.003,19.321-14.003h39.117l-8.956,11.714h-31.237c-3.232,0-4.782,0.809-4.782,3.098
						c0,2.288,1.55,3.164,4.782,3.164H850.529z"/>
				</g>
			</g>
		</g>
	</g>
</g>
</svg>
