<svg width="270" height="44" viewBox="0 0 270 44" fill="none" xmlns="http://www.w3.org/2000/svg">
<g clip-path="url(#clip0_349_665)">
<path d="M10.8405 21.9498L14.8856 16.433H20.3218C21.6162 16.433 23.1374 16.433 24.1726 16.4978C23.5904 15.7281 22.6843 14.4125 21.9721 13.3864L18.0895 7.70958L7.92828 21.9498H0L13.8823 2.54553C14.7884 1.29466 16.1147 0.140137 18.218 0.140137C20.2246 0.140137 21.5509 1.19832 22.4894 2.54553L36.0158 21.9498H10.8405ZM61.1626 21.9498H40.6469C38.9642 21.9498 37.5403 20.9879 37.5403 19.2559C37.5403 18.2614 38.0905 17.2996 38.9966 16.5936L46.892 10.4356C50.4841 7.58112 52.0371 6.5224 52.846 5.94487C51.6807 6.04175 49.7075 6.07333 45.4037 6.07333H36.7313L41.0027 0.49287H60.9682C62.6508 0.49287 64.0742 1.4547 64.0742 3.18729C64.0742 4.14913 63.524 5.14361 62.6184 5.81695L54.6259 12.1034C51.0667 14.8942 49.5779 15.9845 48.7366 16.562C49.8042 16.4983 53.946 16.4335 57.3437 16.4335H65.2072L61.1626 21.9498ZM269.999 0.49287L266.833 4.43869H94.5913L85.2719 14.8626V21.9509H78.5414V14.8299L65.3389 0.49287H73.9465L79.124 6.45871C79.8034 7.22839 81.6156 9.18471 82.0687 9.82647C82.4899 9.21683 83.2334 8.28711 84.7865 6.42606L89.7048 0.492331H269.999V0.49287Z" fill="url(#paint0_linear_349_665)"/>
<path d="M96.603 16.0803C98.641 16.0803 100.259 17.2348 100.259 19.2238C100.259 21.1801 98.641 22.3025 96.603 22.3025C94.5964 22.3025 92.9785 21.1796 92.9785 19.2238C92.9791 17.2348 94.5969 16.0803 96.603 16.0803ZM117.742 13.5999C121.158 13.5999 123.001 14.8669 123.001 17.4007C123.001 20.2466 121.262 21.9498 116.987 21.9498H103.932L106.719 18.3775H117.323C118.35 18.3775 118.811 18.0869 118.811 17.3595C118.811 16.653 118.35 16.3623 117.323 16.3623H109.695C106.09 16.3623 104.435 14.763 104.435 12.3742C104.435 9.75688 106.194 8.05427 110.449 8.05427H122.624L119.837 11.6682H110.113C109.108 11.6682 108.626 11.9177 108.626 12.6242C108.626 13.3302 109.108 13.6005 110.113 13.6005H117.742V13.5999ZM144.986 14.9916C144.986 19.956 141.55 22.1789 134.739 22.1789C127.907 22.1789 124.491 19.956 124.491 14.9916C124.491 10.0277 127.907 7.82518 134.739 7.82518C141.55 7.82518 144.986 10.0277 144.986 14.9916ZM140.669 14.9916C140.669 12.0006 139.098 11.4397 134.739 11.4397C130.381 11.4397 128.809 12.0001 128.809 14.9916C128.809 17.9831 130.381 18.5643 134.739 18.5643C139.098 18.5643 140.669 17.9825 140.669 14.9916ZM162.382 18.3775L159.575 21.9498H147.189V8.05373H151.527V18.3775H162.382ZM182.04 15.8849C182.04 20.0812 179.127 22.1789 173.301 22.1789C166.554 22.1789 163.641 20.0807 163.641 15.8849V8.05427H167.957V15.8849C167.957 17.9418 168.837 18.6061 173.301 18.6061C176.634 18.6061 177.681 17.8375 177.681 15.8849V8.05427H182.04V15.8849H182.04ZM201.908 8.05373L199.1 11.6677H194.091V21.9498H189.754V11.6682H183.174L185.982 8.05427L201.908 8.05373ZM207.631 21.9498H203.293V8.05373H207.631V21.9498ZM230.389 14.9916C230.389 19.956 226.952 22.1789 220.141 22.1789C213.31 22.1789 209.893 19.956 209.893 14.9916C209.893 10.0277 213.309 7.82518 220.141 7.82518C226.952 7.82518 230.389 10.0277 230.389 14.9916ZM226.072 14.9916C226.072 12.0006 224.5 11.4397 220.142 11.4397C215.783 11.4397 214.211 12.0001 214.211 14.9916C214.211 17.9831 215.783 18.5643 220.142 18.5643C224.5 18.5643 226.072 17.9825 226.072 14.9916ZM245.06 21.4306L236.468 13.7867V21.9492H232.529V10.4211C232.529 8.57238 233.661 7.82465 234.897 7.82465C235.421 7.82465 235.945 7.94936 236.637 8.57239L245.228 16.2162V8.0532H249.189V19.561C249.189 21.4097 248.057 22.1783 246.8 22.1783C246.255 22.1789 245.732 22.0531 245.06 21.4306ZM264.739 13.5999C268.155 13.5999 270 14.8669 270 17.4007C270 20.2466 268.26 21.9498 263.985 21.9498H250.929L253.716 18.3775H264.32C265.347 18.3775 265.808 18.0869 265.808 17.3595C265.808 16.653 265.347 16.3623 264.32 16.3623H256.692C253.088 16.3623 251.432 14.763 251.432 12.3742C251.432 9.75688 253.193 8.05427 257.446 8.05427H269.622L266.835 11.6682H257.112C256.106 11.6682 255.623 11.9177 255.623 12.6242C255.623 13.3302 256.106 13.6005 257.112 13.6005H264.739V13.5999Z" fill="white"/>
<path d="M33.418 31.4638H38.846V32.7286H34.836V35.278H38.7785V36.5085H34.836V39.0777H38.846V40.3424H33.418V31.4638Z" fill="white"/>
<path d="M44.1315 37.4093L46.5334 40.3419H44.8913L43.2492 38.2978L41.6065 40.3419H40.0664L42.4618 37.5035L40.311 34.8203H41.9596L43.3237 36.5823L44.7282 34.8203H46.2413L44.1315 37.4093Z" fill="white"/>
<path d="M49.0186 43.1391H47.5801V34.8198H49.0392V35.7811C49.0888 35.6467 49.2055 35.4921 49.3885 35.3176C49.5716 35.1431 49.8151 34.9895 50.1175 34.8567C50.421 34.7245 50.7666 34.6581 51.1554 34.6581C51.6803 34.6581 52.1404 34.7823 52.5362 35.0312C52.932 35.2801 53.242 35.6237 53.4661 36.0642C53.6902 36.5031 53.802 37.0106 53.802 37.5843C53.802 38.1581 53.6869 38.6645 53.4558 39.1044C53.2252 39.5439 52.9072 39.8864 52.5027 40.1332C52.0977 40.3799 51.6328 40.503 51.1079 40.503C50.6959 40.503 50.3389 40.4275 50.036 40.2777C49.7331 40.1278 49.4955 39.9581 49.3237 39.7703C49.152 39.5819 49.0505 39.4315 49.0186 39.3196V43.1391ZM52.3704 37.5838C52.3704 37.2295 52.2954 36.9201 52.1463 36.6557C51.9973 36.3913 51.7991 36.1857 51.5523 36.0407C51.3055 35.8951 51.0355 35.8218 50.7412 35.8218C50.4248 35.8218 50.1375 35.8972 49.8794 36.0476C49.6213 36.197 49.4166 36.403 49.2649 36.6664C49.1131 36.9281 49.0381 37.2348 49.0381 37.5843C49.0381 37.9333 49.1137 38.24 49.2649 38.5023C49.4161 38.7645 49.6213 38.9695 49.8794 39.1178C50.1375 39.265 50.4243 39.3394 50.7412 39.3394C51.0355 39.3394 51.3055 39.2677 51.5523 39.1242C51.7986 38.9808 51.9967 38.7774 52.1463 38.5124C52.2959 38.2475 52.3704 37.9376 52.3704 37.5838Z" fill="white"/>
<path d="M56.3518 40.3403H54.9062V34.8192H56.3518V35.7409H56.3178C56.3497 35.6285 56.4366 35.4878 56.5786 35.3202C56.7212 35.1522 56.9188 34.9996 57.1721 34.8631C57.4253 34.7261 57.731 34.6581 58.0885 34.6581C58.3466 34.6581 58.5772 34.694 58.7807 34.7657C58.9843 34.838 59.129 34.9097 59.2149 34.9809L58.6312 36.1643C58.5723 36.0931 58.4627 36.0219 58.3023 35.9524C58.1414 35.8833 57.9437 35.8485 57.7083 35.8485C57.4145 35.8485 57.1667 35.9336 56.9653 36.1044C56.7644 36.2746 56.6116 36.4785 56.5073 36.7162C56.4037 36.9543 56.3513 37.1759 56.3513 37.382L56.3518 40.3403Z" fill="white"/>
<path d="M60.7841 37.9215C60.7933 38.2132 60.863 38.4755 60.9947 38.7089C61.126 38.9422 61.3193 39.1248 61.5747 39.257C61.8301 39.3892 62.1439 39.455 62.5143 39.455C62.8356 39.455 63.1126 39.4111 63.3454 39.3239C63.5781 39.2366 63.772 39.1312 63.9259 39.0081C64.0798 38.885 64.1926 38.7694 64.265 38.6618L64.9097 39.5299C64.7693 39.7178 64.5933 39.8859 64.3805 40.0341C64.1678 40.1813 63.9043 40.2975 63.59 40.3799C63.2752 40.4629 62.888 40.5041 62.4263 40.5041C61.8199 40.5041 61.2928 40.381 60.8452 40.1342C60.397 39.8875 60.0497 39.5406 59.8035 39.0921C59.5567 38.6436 59.4336 38.1201 59.4336 37.5179C59.4336 36.9806 59.5465 36.4951 59.7727 36.0621C59.999 35.6296 60.3278 35.2881 60.7598 35.0365C61.1918 34.785 61.7108 34.6597 62.3172 34.6597C62.8826 34.6597 63.3734 34.7716 63.7898 34.9964C64.2061 35.2207 64.528 35.5424 64.7564 35.9614C64.9848 36.3805 65.0993 36.8864 65.0993 37.4783C65.0993 37.5137 65.0987 37.5881 65.096 37.6999C65.0939 37.8129 65.0885 37.8867 65.0788 37.922L60.7841 37.9215ZM63.7423 36.8724C63.7379 36.7285 63.6888 36.5652 63.5965 36.3816C63.5036 36.1975 63.3556 36.0369 63.152 35.9004C62.9485 35.764 62.6768 35.6954 62.3377 35.6954C61.9889 35.6954 61.707 35.7618 61.4894 35.8935C61.2723 36.0262 61.1114 36.183 61.0072 36.3645C60.9035 36.5465 60.8419 36.7156 60.8241 36.8719L63.7423 36.8724Z" fill="white"/>
<path d="M68.5439 34.6576C68.856 34.6576 69.1454 34.6865 69.4122 34.7443C69.6789 34.8027 69.9074 34.8722 70.098 34.9536C70.2881 35.0339 70.4193 35.1013 70.4916 35.1554L69.9624 36.0428C69.8723 35.9663 69.7103 35.8796 69.4775 35.7805C69.2448 35.6815 68.9829 35.6328 68.6934 35.6328C68.4035 35.6328 68.1599 35.6847 67.9607 35.7875C67.7614 35.8903 67.662 36.0449 67.662 36.2516C67.662 36.4533 67.7673 36.615 67.9774 36.7359C68.188 36.8569 68.4737 36.9576 68.836 37.0378C69.1346 37.1053 69.4197 37.1984 69.6908 37.3167C69.9619 37.435 70.1855 37.603 70.3588 37.8204C70.5327 38.0377 70.6202 38.3283 70.6202 38.6923C70.6202 39.0375 70.5467 39.3255 70.3998 39.5556C70.253 39.7868 70.0569 39.9715 69.8129 40.1107C69.5682 40.2498 69.2982 40.3494 69.0018 40.4099C68.7059 40.4709 68.4078 40.5009 68.1097 40.5009C67.7436 40.5009 67.4163 40.4655 67.1291 40.3938C66.8418 40.3221 66.6036 40.2375 66.413 40.1412C66.2229 40.0448 66.0874 39.963 66.0059 39.896L66.5351 38.9005C66.6528 39.0123 66.845 39.1306 67.1118 39.2537C67.3785 39.3763 67.6772 39.4389 68.0076 39.4389C68.3603 39.4389 68.6432 39.3715 68.856 39.2372C69.0687 39.1033 69.1746 38.9235 69.1746 38.6992C69.1746 38.5333 69.1238 38.3984 69.0223 38.2951C68.9208 38.1924 68.7815 38.1094 68.6049 38.0462C68.4283 37.9836 68.2317 37.9274 68.0147 37.8782C67.8111 37.8289 67.6064 37.7652 67.4007 37.6871C67.1944 37.6089 67.0059 37.5056 66.8342 37.3777C66.662 37.2503 66.5243 37.0898 66.42 36.8971C66.3164 36.7049 66.264 36.478 66.264 36.2173C66.264 35.886 66.3698 35.6034 66.5831 35.37C66.7959 35.1367 67.0761 34.9595 67.4244 34.8385C67.7722 34.7181 68.1459 34.6576 68.5439 34.6576Z" fill="white"/>
<path d="M74.1214 34.6576C74.4336 34.6576 74.723 34.6865 74.9903 34.7443C75.2571 34.8027 75.4855 34.8722 75.6756 34.9536C75.8662 35.0339 75.9969 35.1013 76.0692 35.1554L75.54 36.0428C75.4493 35.9663 75.2878 35.8796 75.0546 35.7805C74.8213 35.6815 74.5605 35.6328 74.271 35.6328C73.981 35.6328 73.737 35.6847 73.5382 35.7875C73.339 35.8903 73.2396 36.0449 73.2396 36.2516C73.2396 36.4533 73.3449 36.615 73.555 36.7359C73.7656 36.8569 74.0512 36.9576 74.4136 37.0378C74.7122 37.1053 74.9973 37.1984 75.2684 37.3167C75.54 37.4355 75.763 37.603 75.9369 37.8204C76.1108 38.0377 76.1977 38.3283 76.1977 38.6923C76.1977 39.0375 76.1243 39.3255 75.9774 39.5556C75.83 39.7868 75.6345 39.9715 75.3904 40.1107C75.1464 40.2498 74.8758 40.3494 74.5799 40.4099C74.2834 40.4709 73.9859 40.5009 73.6878 40.5009C73.3212 40.5009 72.9945 40.4655 72.7072 40.3938C72.4199 40.3221 72.1812 40.2375 71.9911 40.1412C71.8011 40.0448 71.6655 39.963 71.584 39.896L72.1132 38.9005C72.2309 39.0123 72.4231 39.1306 72.6899 39.2537C72.9567 39.3763 73.2553 39.4389 73.5852 39.4389C73.9384 39.4389 74.2208 39.3715 74.4336 39.2372C74.6463 39.1033 74.7522 38.9235 74.7522 38.6992C74.7522 38.5333 74.7014 38.3984 74.5999 38.2951C74.4984 38.1924 74.359 38.1094 74.1825 38.0462C74.0059 37.9836 73.8093 37.9274 73.5922 37.8782C73.3887 37.8289 73.184 37.7652 72.9783 37.6871C72.7725 37.6089 72.5835 37.5056 72.4118 37.3777C72.2395 37.2503 72.1018 37.0898 71.9976 36.8971C71.8934 36.7049 71.8416 36.478 71.8416 36.2173C71.8416 35.886 71.9479 35.6034 72.1607 35.37C72.3735 35.1367 72.6537 34.9595 73.002 34.8385C73.3498 34.7181 73.7229 34.6576 74.1214 34.6576Z" fill="white"/>
<path d="M83.3979 39.0568L85.1621 34.8203H86.6077L82.8212 43.1402H81.3556L82.6311 40.3419L80.3242 34.8209H81.7892L83.3979 39.0568Z" fill="white"/>
<path d="M90.0752 40.504C89.4914 40.504 88.9725 40.3777 88.5178 40.1246C88.0631 39.8709 87.7067 39.5256 87.4491 39.0889C87.191 38.651 87.0625 38.1543 87.0625 37.5982C87.0625 37.0432 87.191 36.5422 87.4491 36.0985C87.7073 35.6547 88.0631 35.3047 88.5178 35.0462C88.9725 34.7887 89.4914 34.6592 90.0752 34.6592C90.6589 34.6592 91.1746 34.7882 91.6223 35.0462C92.0705 35.3041 92.4215 35.6553 92.6774 36.0985C92.9328 36.5422 93.0603 37.0432 93.0603 37.5982C93.0603 38.1543 92.9323 38.651 92.6774 39.0889C92.4215 39.5251 92.0699 39.8709 91.6223 40.1246C91.1746 40.3777 90.6589 40.504 90.0752 40.504ZM90.0752 39.2928C90.4008 39.2928 90.6837 39.2189 90.9235 39.0712C91.1633 38.9235 91.3485 38.7212 91.4797 38.4658C91.6109 38.21 91.6763 37.9188 91.6763 37.5913C91.6763 37.2637 91.6104 36.972 91.4797 36.7134C91.3485 36.4555 91.1633 36.2505 90.9235 36.0979C90.6832 35.9464 90.4008 35.8694 90.0752 35.8694C89.7495 35.8694 89.4655 35.9464 89.2236 36.0979C88.9817 36.2505 88.7937 36.4555 88.6604 36.7134C88.527 36.9714 88.46 37.2631 88.46 37.5913C88.46 37.9183 88.527 38.21 88.6604 38.4658C88.7937 38.7212 88.9817 38.9229 89.2236 39.0712C89.4655 39.2195 89.7495 39.2928 90.0752 39.2928Z" fill="white"/>
<path d="M95.6522 37.5297C95.6522 38.0676 95.764 38.4958 95.9881 38.8138C96.2122 39.1322 96.5659 39.2917 97.0503 39.2917C97.5385 39.2917 97.8938 39.1322 98.1152 38.8138C98.3371 38.4953 98.4478 38.0671 98.4478 37.5297V34.8198H99.8864V37.7112C99.8864 38.2673 99.7757 38.7544 99.5543 39.174C99.3323 39.5931 99.0116 39.9196 98.5904 40.1524C98.1697 40.3863 97.6562 40.5019 97.0503 40.5019C96.4487 40.5019 95.9374 40.3858 95.5167 40.1524C95.096 39.9191 94.7747 39.5931 94.5528 39.174C94.3314 38.7544 94.2207 38.2673 94.2207 37.7112V34.8198H95.6522V37.5297Z" fill="white"/>
<path d="M102.764 40.3403H101.318V34.8192H102.764V35.7409H102.73C102.762 35.6285 102.849 35.4878 102.991 35.3202C103.133 35.1522 103.331 34.9996 103.585 34.8631C103.839 34.7267 104.144 34.6581 104.501 34.6581C104.759 34.6581 104.989 34.694 105.193 34.7657C105.396 34.838 105.541 34.9097 105.627 34.9809L105.043 36.1643C104.984 36.0931 104.874 36.0219 104.714 35.9524C104.554 35.8833 104.356 35.8485 104.12 35.8485C103.827 35.8485 103.579 35.9336 103.378 36.1044C103.176 36.2746 103.024 36.4785 102.92 36.7162C102.816 36.9543 102.764 37.1759 102.764 37.382V40.3403Z" fill="white"/>
<path d="M109.305 34.8208H110.35V32.5541H111.788V34.8208H113.166V36.0316H111.788V38.392C111.788 38.6885 111.839 38.9107 111.941 39.0578C112.042 39.2056 112.188 39.2805 112.379 39.2805C112.537 39.2805 112.662 39.25 112.755 39.1927C112.848 39.1344 112.903 39.0942 112.922 39.0712L113.458 40.1134C113.431 40.1407 113.351 40.1856 113.22 40.2482C113.089 40.3109 112.919 40.3697 112.712 40.4227C112.504 40.4768 112.266 40.5035 111.999 40.5035C111.528 40.5035 111.136 40.3638 110.822 40.0866C110.508 39.8088 110.351 39.3731 110.351 38.7817V36.031H109.306L109.305 34.8208Z" fill="white"/>
<path d="M118.833 40.3403V39.3179C118.797 39.4255 118.693 39.5738 118.524 39.7617C118.354 39.9506 118.124 40.1208 117.832 40.2734C117.54 40.4259 117.195 40.5014 116.797 40.5014C116.277 40.5014 115.809 40.3783 115.392 40.1321C114.976 39.8858 114.648 39.5427 114.408 39.1033C114.168 38.6639 114.049 38.1575 114.049 37.5827C114.049 37.0094 114.169 36.502 114.408 36.0631C114.648 35.6232 114.976 35.279 115.392 35.0296C115.809 34.7807 116.277 34.657 116.797 34.657C117.186 34.657 117.523 34.7239 117.808 34.8588C118.093 34.9932 118.323 35.1479 118.497 35.3229C118.671 35.4974 118.779 35.6499 118.819 35.78V34.8181H120.258V40.3392L118.833 40.3403ZM115.481 37.5832C115.481 37.937 115.56 38.2464 115.719 38.5108C115.877 38.7757 116.084 38.9802 116.34 39.1236C116.595 39.2671 116.87 39.3383 117.164 39.3383C117.48 39.3383 117.762 39.2639 118.008 39.1162C118.254 38.9684 118.449 38.7629 118.592 38.5017C118.734 38.2384 118.806 37.9327 118.806 37.5827C118.806 37.2337 118.734 36.927 118.592 36.6647C118.449 36.4025 118.255 36.1959 118.008 36.046C117.761 35.8956 117.48 35.8212 117.164 35.8212C116.869 35.8212 116.594 35.8934 116.34 36.0396C116.084 36.1846 115.877 36.3902 115.719 36.6546C115.56 36.919 115.481 37.2284 115.481 37.5832Z" fill="white"/>
<path d="M123.236 40.3403H121.777V31.0859H123.236V40.3403Z" fill="white"/>
<path d="M125.821 37.9215C125.83 38.2132 125.9 38.4755 126.031 38.7089C126.163 38.9422 126.356 39.1248 126.612 39.257C126.867 39.3892 127.181 39.455 127.551 39.455C127.873 39.455 128.15 39.4111 128.382 39.3239C128.615 39.2366 128.809 39.1312 128.962 39.0081C129.116 38.885 129.229 38.7694 129.302 38.6618L129.946 39.5299C129.806 39.7178 129.63 39.8859 129.417 40.0341C129.204 40.1813 128.941 40.2975 128.627 40.3799C128.312 40.4629 127.925 40.5041 127.463 40.5041C126.856 40.5041 126.329 40.381 125.882 40.1342C125.434 39.8875 125.087 39.5406 124.841 39.0921C124.594 38.6436 124.471 38.1201 124.471 37.5179C124.471 36.9806 124.584 36.4951 124.81 36.0621C125.036 35.6296 125.365 35.2881 125.797 35.0365C126.229 34.785 126.748 34.6597 127.354 34.6597C127.919 34.6597 128.411 34.7716 128.826 34.9964C129.243 35.2207 129.565 35.5424 129.793 35.9614C130.021 36.3805 130.136 36.8864 130.136 37.4783C130.136 37.5137 130.135 37.5881 130.133 37.6999C130.13 37.8129 130.125 37.8867 130.116 37.922L125.821 37.9215ZM128.779 36.8724C128.774 36.7285 128.725 36.5652 128.632 36.3816C128.54 36.1975 128.392 36.0369 128.188 35.9004C127.984 35.764 127.713 35.6954 127.374 35.6954C127.025 35.6954 126.743 35.7618 126.525 35.8935C126.308 36.0262 126.147 36.183 126.044 36.3645C125.94 36.5465 125.878 36.7156 125.861 36.8719L128.779 36.8724Z" fill="white"/>
<path d="M134.705 34.6576C135.08 34.6576 135.444 34.7336 135.797 34.8856C136.15 35.0381 136.44 35.2817 136.669 35.6151C136.897 35.9497 137.011 36.3838 137.011 36.9169V40.3403H135.553V37.1791C135.553 36.6814 135.434 36.3153 135.196 36.0797C134.959 35.8442 134.652 35.727 134.277 35.727C134.028 35.727 133.79 35.7961 133.564 35.9352C133.338 36.0744 133.154 36.2623 133.012 36.4999C132.869 36.7381 132.798 37.0111 132.798 37.3204V40.3408H131.346V34.8192H132.798V35.7474C132.839 35.5948 132.948 35.4342 133.127 35.2667C133.306 35.0986 133.533 34.9552 133.809 34.8358C134.085 34.7175 134.383 34.6576 134.705 34.6576Z" fill="white"/>
<path d="M137.979 34.8208H139.023V32.5541H140.461V34.8208H141.84V36.0316H140.461V38.392C140.461 38.6885 140.513 38.9107 140.614 39.0578C140.716 39.2056 140.862 39.2805 141.052 39.2805C141.21 39.2805 141.336 39.25 141.429 39.1927C141.521 39.1344 141.577 39.0942 141.595 39.0712L142.131 40.1134C142.104 40.1407 142.025 40.1856 141.894 40.2482C141.763 40.3109 141.593 40.3697 141.385 40.4227C141.177 40.4768 140.939 40.5035 140.673 40.5035C140.203 40.5035 139.81 40.3638 139.495 40.0866C139.181 39.8093 139.023 39.3731 139.023 38.7817V36.031H137.979V34.8208Z" fill="white"/>
<path d="M144.203 38.4648C144.498 38.4648 144.751 38.5692 144.964 38.7779C145.177 38.9866 145.282 39.2725 145.282 39.6354C145.282 39.9897 145.208 40.3285 145.062 40.6513C144.915 40.9735 144.722 41.2641 144.485 41.5221C144.248 41.7796 143.991 41.9829 143.715 42.1307L143.233 41.6329C143.378 41.5612 143.533 41.4648 143.697 41.3433C143.862 41.2218 144.013 41.0827 144.149 40.9237C144.284 40.7637 144.375 40.5929 144.42 40.4088C144.325 40.4586 144.207 40.4832 144.067 40.4832C143.823 40.4832 143.609 40.3911 143.426 40.207C143.242 40.0229 143.15 39.79 143.15 39.5069C143.15 39.3099 143.197 39.1328 143.29 38.9754C143.383 38.8186 143.509 38.6949 143.67 38.6023C143.832 38.5108 144.01 38.4648 144.203 38.4648Z" fill="white"/>
<path d="M154.189 36.4935L152.811 40.3408H151.386L149.771 34.8192H151.312L152.282 38.7875L153.645 34.9263H154.738L156.089 38.7875L157.072 34.8192H158.613L157.004 40.3408H155.579L154.189 36.4935Z" fill="white"/>
<path d="M160.606 37.9215C160.616 38.2132 160.686 38.4755 160.817 38.7089C160.948 38.9422 161.142 39.1248 161.397 39.257C161.653 39.3892 161.966 39.455 162.337 39.455C162.658 39.455 162.935 39.4111 163.168 39.3239C163.401 39.2366 163.594 39.1312 163.748 39.0081C163.901 38.885 164.015 38.7694 164.087 38.6618L164.732 39.5299C164.591 39.7178 164.415 39.8859 164.203 40.0341C163.99 40.1813 163.727 40.2975 163.412 40.3799C163.097 40.4629 162.71 40.5041 162.249 40.5041C161.643 40.5041 161.116 40.381 160.667 40.1342C160.22 39.8875 159.873 39.5406 159.626 39.0921C159.379 38.6436 159.256 38.1201 159.256 37.5179C159.256 36.9806 159.369 36.4951 159.595 36.0621C159.822 35.6291 160.151 35.2881 160.582 35.0365C161.015 34.785 161.534 34.6597 162.14 34.6597C162.705 34.6597 163.196 34.7716 163.613 34.9964C164.028 35.2207 164.351 35.5424 164.579 35.9614C164.808 36.3805 164.922 36.8864 164.922 37.4783C164.922 37.5137 164.921 37.5881 164.919 37.6999C164.916 37.8123 164.911 37.8867 164.902 37.922L160.606 37.9215ZM163.565 36.8724C163.56 36.7285 163.511 36.5652 163.418 36.3816C163.325 36.1975 163.178 36.0369 162.974 35.9004C162.77 35.7634 162.499 35.6954 162.159 35.6954C161.811 35.6954 161.529 35.7618 161.312 35.8935C161.095 36.0262 160.934 36.183 160.829 36.3645C160.726 36.5465 160.664 36.7156 160.646 36.8719L163.565 36.8724Z" fill="white"/>
<path d="M166.938 31.4488C167.151 31.4488 167.329 31.5243 167.47 31.6741C167.613 31.8235 167.685 32.0317 167.685 32.2961C167.685 32.6097 167.621 32.9978 167.494 33.4597C167.367 33.9216 167.234 34.3787 167.094 34.8315H166.606C166.542 34.5398 166.479 34.238 166.416 33.9243C166.352 33.6106 166.299 33.3109 166.256 33.0262C166.212 32.7419 166.191 32.4984 166.191 32.2966C166.191 32.0322 166.264 31.8251 166.408 31.6747C166.554 31.5243 166.73 31.4488 166.938 31.4488Z" fill="white"/>
<path d="M170.766 40.3403H169.307V31.0859H170.766V40.3403Z" fill="white"/>
<path d="M173.832 40.3403H172.373V31.0859H173.832V40.3403Z" fill="white"/>
<path d="M183.291 40.3403V39.3179C183.255 39.4255 183.152 39.5738 182.983 39.7617C182.814 39.9506 182.583 40.1208 182.291 40.2734C181.999 40.4259 181.654 40.5014 181.256 40.5014C180.736 40.5014 180.268 40.3783 179.851 40.1321C179.435 39.8858 179.107 39.5427 178.867 39.1033C178.628 38.6639 178.508 38.1575 178.508 37.5827C178.508 37.0094 178.628 36.502 178.867 36.0631C179.107 35.6232 179.435 35.279 179.851 35.0296C180.268 34.7807 180.736 34.657 181.256 34.657C181.645 34.657 181.982 34.7239 182.267 34.8588C182.552 34.9932 182.781 35.1479 182.955 35.3229C183.13 35.4974 183.237 35.6499 183.278 35.78V34.8181H184.716V40.3392L183.291 40.3403ZM179.939 37.5832C179.939 37.937 180.018 38.2464 180.177 38.5108C180.335 38.7757 180.543 38.9802 180.797 39.1236C181.052 39.2671 181.328 39.3383 181.621 39.3383C181.938 39.3383 182.22 39.2639 182.466 39.1162C182.713 38.9684 182.907 38.7629 183.05 38.5017C183.192 38.2384 183.264 37.9327 183.264 37.5827C183.264 37.2337 183.192 36.927 183.05 36.6647C182.908 36.4025 182.713 36.1959 182.466 36.046C182.22 35.8956 181.938 35.8212 181.621 35.8212C181.328 35.8212 181.052 35.8934 180.797 36.0396C180.542 36.1846 180.335 36.3902 180.177 36.6546C180.018 36.919 179.939 37.2284 179.939 37.5832Z" fill="white"/>
<path d="M193.2 34.6576C193.616 34.6576 193.974 34.7443 194.275 34.9199C194.576 35.0944 194.809 35.3631 194.973 35.727C195.139 36.0899 195.221 36.554 195.221 37.1192V40.3408H193.79V37.375C193.79 36.8419 193.714 36.4352 193.562 36.1584C193.411 35.8801 193.127 35.7415 192.711 35.7415C192.485 35.7415 192.272 35.8009 192.073 35.9224C191.874 36.0439 191.715 36.2243 191.595 36.4646C191.474 36.7044 191.415 37.0084 191.415 37.3756V40.3414H190.071V37.3756C190.071 36.8425 189.98 36.4357 189.796 36.159C189.613 35.8806 189.341 35.742 188.979 35.742C188.748 35.742 188.536 35.7998 188.341 35.9165C188.146 36.0332 187.991 36.2125 187.873 36.4544C187.755 36.6963 187.696 37.0036 187.696 37.3761V40.3419H186.258V34.8203H187.696V35.6483C187.746 35.5086 187.858 35.3631 188.032 35.2105C188.206 35.0585 188.425 34.9284 188.687 34.8203C188.949 34.7127 189.238 34.6592 189.549 34.6592C189.889 34.6592 190.17 34.7202 190.394 34.8444C190.618 34.9675 190.797 35.1206 190.93 35.3042C191.063 35.4894 191.162 35.6724 191.225 35.856C191.288 35.6719 191.412 35.4888 191.595 35.3042C191.778 35.12 192.008 34.9675 192.283 34.8444C192.559 34.7213 192.865 34.6576 193.2 34.6576Z" fill="white"/>
<path d="M198.167 43.1391H196.729V34.8198H198.188V35.7811C198.237 35.6467 198.354 35.4921 198.537 35.3176C198.72 35.1431 198.963 34.9895 199.267 34.8567C199.57 34.7245 199.916 34.6581 200.305 34.6581C200.83 34.6581 201.29 34.7823 201.686 35.0312C202.082 35.2801 202.392 35.6237 202.616 36.0642C202.84 36.5031 202.951 37.0106 202.951 37.5843C202.951 38.1581 202.836 38.6645 202.605 39.1044C202.375 39.5439 202.056 39.8864 201.652 40.1332C201.247 40.3799 200.782 40.503 200.257 40.503C199.846 40.503 199.488 40.4275 199.186 40.2777C198.883 40.1278 198.646 39.9581 198.473 39.7703C198.302 39.5819 198.2 39.4315 198.169 39.3196V43.1396H198.167V43.1391ZM201.519 37.5838C201.519 37.2295 201.444 36.9201 201.295 36.6557C201.146 36.3913 200.948 36.1857 200.701 36.0407C200.455 35.8951 200.185 35.8218 199.89 35.8218C199.574 35.8218 199.286 35.8972 199.028 36.0476C198.77 36.197 198.566 36.403 198.414 36.6664C198.263 36.9281 198.187 37.2348 198.187 37.5843C198.187 37.9333 198.263 38.24 198.414 38.5023C198.565 38.7645 198.77 38.9695 199.028 39.1178C199.286 39.265 199.574 39.3394 199.89 39.3394C200.185 39.3394 200.455 39.2677 200.701 39.1242C200.947 38.9808 201.145 38.7774 201.295 38.5124C201.444 38.2464 201.519 37.9376 201.519 37.5838Z" fill="white"/>
<path d="M205.603 40.3403H204.145V31.0859H205.603V40.3403Z" fill="white"/>
<path d="M208.037 33.1643C207.793 33.1643 207.584 33.077 207.409 32.902C207.235 32.727 207.148 32.5188 207.148 32.2763C207.148 32.0349 207.235 31.8245 207.409 31.6474C207.584 31.4702 207.793 31.3819 208.037 31.3819C208.2 31.3819 208.35 31.4231 208.489 31.5066C208.626 31.589 208.738 31.6966 208.821 31.8299C208.905 31.9616 208.946 32.1109 208.946 32.2763C208.946 32.5188 208.858 32.7275 208.682 32.902C208.505 33.0765 208.291 33.1643 208.037 33.1643ZM207.298 40.3403V34.8192H208.744V40.3403H207.298Z" fill="white"/>
<path d="M209.945 34.8208H211.017V33.2873C211.017 32.7366 211.121 32.287 211.329 31.9385C211.538 31.5917 211.803 31.3353 212.127 31.1721C212.451 31.0077 212.784 30.9264 213.128 30.9264C213.549 30.9264 213.871 30.9837 214.095 31.0977C214.318 31.2127 214.455 31.292 214.505 31.3358L213.935 32.4128C213.908 32.3855 213.84 32.3373 213.731 32.2677C213.623 32.1987 213.476 32.1639 213.291 32.1639C213.155 32.1639 213.025 32.196 212.9 32.2581C212.776 32.3212 212.671 32.4449 212.585 32.6279C212.499 32.811 212.456 33.0813 212.456 33.4356V34.8208H213.982V36.0316H212.456V40.343H211.017V36.0316H209.945V34.8208Z" fill="white"/>
<path d="M217.45 39.0568L219.215 34.8203H220.66L216.874 43.1402H215.408L216.684 40.3419L214.377 34.8209H215.843L217.45 39.0568Z" fill="white"/>
<path d="M225.768 33.1643C225.524 33.1643 225.314 33.077 225.14 32.902C224.966 32.727 224.879 32.5188 224.879 32.2763C224.879 32.0349 224.966 31.8245 225.14 31.6474C225.314 31.4702 225.523 31.3819 225.768 31.3819C225.93 31.3819 226.081 31.4231 226.219 31.5066C226.357 31.589 226.468 31.6966 226.551 31.8299C226.635 31.9616 226.677 32.1109 226.677 32.2763C226.677 32.5188 226.588 32.7275 226.412 32.902C226.235 33.0765 226.022 33.1643 225.768 33.1643ZM225.028 40.3403V34.8192H226.474V40.3403H225.028Z" fill="white"/>
<path d="M227.693 34.8208H228.739V32.5541H230.177V34.8208H231.555V36.0316H230.177V38.392C230.177 38.6885 230.228 38.9107 230.33 39.0578C230.431 39.2056 230.577 39.2805 230.768 39.2805C230.926 39.2805 231.051 39.25 231.144 39.1927C231.237 39.1344 231.292 39.0942 231.31 39.0712L231.846 40.1134C231.819 40.1407 231.74 40.1856 231.609 40.2482C231.478 40.3109 231.308 40.3697 231.1 40.4227C230.892 40.4768 230.655 40.5035 230.388 40.5035C229.918 40.5035 229.525 40.3638 229.21 40.0866C228.896 39.8088 228.739 39.3731 228.739 38.7817V36.031H227.694L227.693 34.8208Z" fill="white"/>
<path d="M234.094 40.5041C233.817 40.5041 233.581 40.4061 233.385 40.2118C233.188 40.0165 233.09 39.7799 233.09 39.5021C233.09 39.2243 233.188 38.9861 233.385 38.7891C233.581 38.5916 233.818 38.4932 234.094 38.4932C234.378 38.4932 234.62 38.5916 234.816 38.7891C235.013 38.9861 235.111 39.2243 235.111 39.5021C235.111 39.7799 235.013 40.0165 234.816 40.2118C234.62 40.4067 234.378 40.5041 234.094 40.5041Z" fill="white"/>
</g>
<defs>
<linearGradient id="paint0_linear_349_665" x1="-0.000662602" y1="11.0461" x2="269.991" y2="11.0461" gradientUnits="userSpaceOnUse">
<stop stop-color="#44FFFF"/>
<stop offset="0.0367" stop-color="#4BF8FF"/>
<stop offset="0.0902" stop-color="#5FE5FF"/>
<stop offset="0.1542" stop-color="#7FC5FF"/>
<stop offset="0.2261" stop-color="#AB98FF"/>
<stop offset="0.3038" stop-color="#E460FF"/>
<stop offset="0.338" stop-color="#FF45FF"/>
</linearGradient>
<clipPath id="clip0_349_665">
<rect width="270" height="43" fill="white" transform="translate(0 0.140137)"/>
</clipPath>
</defs>
</svg>
