<svg height="357.394" viewBox="0 0 309.962 357.394" width="309.962" xmlns="http://www.w3.org/2000/svg"><g fill="#4939bb"><circle cx="147.307" cy="7.996" r="5.495"/><path d="m147.311 15.992c-.459 0-.924-.04-1.392-.123-4.341-.766-7.25-4.921-6.485-9.262.371-2.103 1.538-3.936 3.288-5.161 1.75-1.225 3.871-1.696 5.974-1.324 2.103.371 3.936 1.538 5.161 3.288 1.225 1.749 1.696 3.871 1.325 5.974-.683 3.874-4.065 6.608-7.87 6.608zm-.011-10.992c-.609 0-1.202.186-1.711.542-.655.459-1.092 1.146-1.231 1.933-.287 1.626.803 3.183 2.43 3.47.787.138 1.582-.037 2.238-.497.655-.458 1.092-1.145 1.231-1.933s-.038-1.583-.496-2.238c-.459-.655-1.146-1.092-1.934-1.231-.176-.031-.352-.046-.526-.046z"/><path d="m230.941 261.174-18.717 67.349c-3.367 12.116 3.726 24.669 15.842 28.036 10.794 2.999 21.933-2.311 26.617-12.07l30.297-62.995c6.938-14.424.868-31.74-13.556-38.677-14.424-6.938-31.74-.868-38.678 13.556-.731 1.522-1.357 3.231-1.805 4.801z"/><path d="m289.365 116.253c-21.544-24.955-57.5-36.354-87.207-42.804.628-8.274-.31-16.566-2.741-24.243-2.501-7.94-6.55-15.218-11.728-21.354-5.186-6.132-11.497-11.119-18.397-14.649-6.898-3.542-14.374-5.606-21.811-6.193-.467-.037-.912.258-1.045.727-.152.534.157 1.089.691 1.241l.007.002c6.937 1.974 13.333 5.27 18.74 9.583 5.414 4.307 9.842 9.613 13.038 15.435 3.189 5.83 5.139 12.164 5.791 18.476.617 5.903.084 11.766-1.416 17.272-2.315-.417-4.55-.812-6.675-1.187-31.164-5.495-84.41-14.884-122.245 6.257-37.813 21.146-45.465 64.542-49.947 89.963-4.259 24.156-11.357 64.537 12.23 96.642l-8.641 31.094c-3.367 12.116 3.725 24.668 15.843 28.036 10.793 2.999 21.933-2.311 26.616-12.07l7.338-15.257c13.942 6.518 28.895 11.031 42.882 14.365 12.019 2.866 23.315 4.858 32.632 6.5 31.186 5.499 84.431 14.888 122.265-6.254 37.814-21.145 45.466-64.541 49.948-89.961 4.482-25.421 12.134-68.817-16.167-101.62z"/></g><path d="m206.515 147.813c-20.619-3.636-55.817-9.842-80.247.82-24.429 10.662-28.55 34.03-30.963 47.718-2.414 13.688-6.534 37.056 12.776 55.43 19.309 18.375 54.508 24.581 75.127 28.217s55.817 9.842 80.247-.82c24.429-10.662 28.55-34.03 30.963-47.718 2.414-13.688 6.534-37.056-12.776-55.43-19.309-18.375-54.508-24.581-75.126-28.217z" fill="#feecf8"/><path d="m218.149 256.494c-1.555 0-3.12-.12-4.687-.363-10.491-1.628-19.26-8.515-23.457-18.42-1.4-3.306.145-7.121 3.45-8.521 3.308-1.399 7.121.144 8.521 3.45 2.428 5.733 7.468 9.712 13.48 10.646 6.13.953 12.042-1.297 16.218-6.169 2.336-2.725 6.44-3.041 9.166-.705s3.041 6.44.705 9.166c-6.013 7.014-14.513 10.917-23.396 10.917z" fill="#4939bb"/><path d="m261.613 240.583c-.375 0-.754-.032-1.137-.1-3.535-.624-5.896-3.995-5.272-7.53l4.442-25.192c.624-3.535 3.993-5.892 7.53-5.272 3.535.624 5.896 3.995 5.272 7.53l-4.442 25.192c-.556 3.153-3.299 5.372-6.394 5.372z" fill="#4939bb"/><path d="m170.142 224.454c-.375 0-.754-.032-1.137-.1-3.535-.624-5.896-3.995-5.272-7.53l4.442-25.192c.624-3.535 3.996-5.892 7.53-5.272 3.535.624 5.896 3.995 5.272 7.53l-4.442 25.192c-.556 3.153-3.299 5.372-6.394 5.372z" fill="#4939bb"/><path d="m216.297 322.315c-1.247 0-2.326-.932-2.479-2.201-.166-1.371.812-2.616 2.183-2.781 14.776-1.783 27.684-5.713 38.363-11.681 4.913-2.748 9.518-6.017 13.687-9.717 1.033-.916 2.613-.823 3.529.21s.823 2.613-.21 3.529c-4.438 3.939-9.338 7.418-14.566 10.342-11.252 6.288-24.778 10.419-40.205 12.28-.102.012-.203.019-.302.019z" fill="#feecf8"/></svg>