<svg height="300" viewBox="0 0 772.936 968.591" width="300" xmlns="http://www.w3.org/2000/svg" xmlns:xlink="http://www.w3.org/1999/xlink"><clipPath id="a"><path d="m254.594 891.358c-34.17 73.955-53.241 67.396-82.504 63.401 10.4-100.435 27.891-202.508 65.53-305.982 15.053 0 46.761 2.494 65.339 12.311 1.72 12.395-8.238 29.629-28.919 39.97-19.277 25.915-22.979 68.298-9.191 93.83-9.756 24.984-26.993 66.536-33.217 81.489-1.538 3.695-.277 8.011 3.09 10.176 4.184 2.69 10.799 5.444 19.872 4.806z"/></clipPath><clipPath id="b"><path d="m519.659 893.832c34.17 73.955 53.241 67.396 82.504 63.401-10.4-100.435-27.891-202.508-65.53-305.982-15.053 0-46.761 2.494-65.339 12.311-1.72 12.395 8.238 29.629 28.919 39.97 19.277 25.915 22.979 68.298 9.191 93.83 9.756 24.984 26.993 66.536 33.217 81.489 1.538 3.695.277 8.011-3.09 10.176-4.184 2.69-10.799 5.444-19.872 4.806z"/></clipPath><path d="m264.291 500.128s-264.291 5.404-264.291 135.702c0 88.085 307.149 78.085 383.021 78.085s389.915 18 389.915-88.043c0-123.471-267.32-124.979-267.32-124.979l-241.325-.766z" fill="#4939bb"/><path d="m254.594 891.358c20.667-42.087 52.383-115.236 52.383-115.236-6.124-1.56-15.158-1.838-23.05-1.254-5.696.421-10.772 3.741-13.367 8.828l-5.71 11.192-58.213 87.319 20.298 29.106s10.747-6.128 27.66-19.955z" fill="#fff"/><path d="m226.936 913.814c-.793 0-1.569-.377-2.052-1.07l-20.298-29.106c-.588-.843-.6-1.961-.03-2.816l58.132-87.198 5.644-11.063c2.959-5.799 8.864-9.702 15.41-10.186 9.053-.668 17.969-.174 23.851 1.324.71.181 1.305.664 1.627 1.321.323.658.341 1.424.049 2.096-.317.732-31.977 73.686-52.433 115.344-.158.322-.384.606-.662.834-16.88 13.802-27.558 19.938-28.004 20.192-.389.222-.815.328-1.237.328zm-17.274-31.638 17.981 25.784c3.758-2.345 12.728-8.236 24.946-18.194 18.115-36.947 44.858-98.035 50.867-111.821-5.24-.874-12.33-1.104-19.346-.584-4.815.355-9.155 3.219-11.325 7.471l-5.71 11.192c-.044.087-.093.17-.147.251l-57.267 85.901zm44.932 9.182h.01z" fill="#4939bb"/><path d="m254.594 891.358c-34.17 73.955-53.241 67.396-82.504 63.401 10.4-100.435 27.891-202.508 65.53-305.982 15.053 0 46.761 2.494 65.339 12.311 1.72 12.395-8.238 29.629-28.919 39.97-19.277 25.915-22.979 68.298-9.191 93.83-9.756 24.984-26.993 66.536-33.217 81.489-1.538 3.695-.277 8.011 3.09 10.176 4.184 2.69 10.799 5.444 19.872 4.806z" fill="#fff"/><path d="m192.922 959.465c-5.507 0-11.159-.808-17.176-1.667-1.311-.188-2.642-.377-3.995-.563-1.337-.182-2.288-1.393-2.149-2.734 12.62-121.869 32.873-216.422 65.667-306.579.359-.988 1.298-1.646 2.349-1.646 15.845 0 47.684 2.654 66.508 12.602.711.375 1.198 1.07 1.308 1.866 1.699 12.25-6.897 30.639-29.736 42.276-17.989 24.64-21.972 66.009-8.651 90.68.349.646.396 1.413.129 2.097-9.66 24.738-26.463 65.265-33.238 81.54-1.092 2.623-.195 5.614 2.134 7.112 3.649 2.346 9.791 5.018 18.344 4.414.88-.06 1.731.347 2.233 1.074.502.728.583 1.666.212 2.469-26.124 56.54-44.075 67.059-63.941 67.059zm-18.095-6.849c.546.077 1.088.155 1.627.232 26.063 3.721 43.437 6.21 74.181-58.923-7.808-.276-13.599-2.914-17.265-5.271-4.368-2.809-6.07-8.377-4.046-13.239 6.673-16.028 23.079-55.598 32.781-80.373-13.818-26.87-9.467-69.399 9.93-95.477.234-.314.538-.568.888-.744 19.347-9.673 28.39-25.194 27.688-36.128-17.425-8.657-45.724-11.227-61.242-11.406-32.081 88.666-52.027 181.787-64.542 301.329z" fill="#4939bb"/><g clip-path="url(#a)" fill="#1f201b"><path d="m210.053 758.743h36.737v96.808h-36.737z" transform="matrix(-.8285395 .55993062 -.55993062 -.8285395 869.621 1348.004)"/><path d="m225.542 661.951h36.737v142.87h-36.737z" transform="matrix(-.8285395 .55993062 -.55993062 -.8285395 856.643 1204.454)"/></g><rect fill="#1f201b" height="38.298" rx="19.149" transform="matrix(.18693555 -.98237218 .98237218 .18693555 -628.763 834.948)" width="342.961" x="18.54" y="778.169"/><path d="m772.936 625.872c0 144.681-398.974 215.915-398.974 215.915l8.792-213.255c82.128-27.188 172.373-52.533 240.778-52.49 0 0 84.894 24.128 149.404 49.83z" fill="#4939bb"/><path d="m382.754 631.033c-1.049 0-2.025-.665-2.373-1.715-.434-1.312.277-2.726 1.588-3.159 68.244-22.592 167.498-52.617 241.397-52.617h.167c1.381 0 2.499 1.121 2.499 2.502 0 1.38-1.12 2.498-2.5 2.498-.048-.025-.112 0-.166 0-73.178 0-171.906 29.88-239.826 52.363-.261.087-.526.128-.786.128z" fill="#fff"/><path d="m0 635.83c0 144.681 386.62 212.839 398.974 215.915 24.637 6.135 12.521-212.183-9.059-220.596-7.08-2.76-150.894-55.106-240.511-55.149 0 0-84.894 34.128-149.404 59.83z" fill="#4939bb"/><path d="m409.092 837.132c-.155 0-.313-.014-.471-.044-1.356-.259-2.246-1.568-1.988-2.925 4.451-23.341 4.69-70.571.594-117.528-4.718-54.093-12.752-81.025-18.221-83.157-1.286-.501-1.923-1.951-1.421-3.237.502-1.287 1.951-1.924 3.238-1.421 3.229 1.259 8.12 5.67 13.3 29.338 3.288 15.023 6.084 35.095 8.085 58.044 3.438 39.42 4.566 91.472-.664 118.899-.229 1.197-1.277 2.031-2.453 2.031z" fill="#fff"/><path d="m389.914 633.65c-.302 0-.609-.056-.907-.172-1.409-.549-148.278-54.935-239.604-54.978-1.381 0-2.5-1.12-2.499-2.501s1.12-2.499 2.5-2.499h.001c92.195.043 240 54.767 241.417 55.319 1.286.501 1.923 1.95 1.421 3.237-.385.988-1.33 1.593-2.33 1.593z" fill="#fff"/><path d="m378.313 194.569c214.473 0 358.792 203.922 331.798 286.301-19.282 53.633-104.304-2.681-145.665-62.426l-99.799-70.468-86.333-153.407z" fill="#feecf8"/><path d="m680.531 504.898c-35.587.004-88.412-42.285-117.888-84.667l-99.439-70.214c-.303-.214-.555-.493-.737-.816l-86.333-153.407c-.436-.774-.428-1.721.021-2.488.448-.767 1.27-1.238 2.158-1.238 60.777 0 119.285 15.93 173.896 47.347 58.801 33.827 96.649 76.125 118.045 105.652 36.948 50.987 53.13 103.322 42.232 136.58-4.802 13.359-14.012 21.26-26.657 22.916-1.716.225-3.487.334-5.298.334zm-213.983-158.64 99.339 70.144c.239.168.447.378.614.619 15.355 22.18 36.819 43.96 58.888 59.758 23.346 16.711 44.578 24.815 59.791 22.827 10.82-1.417 18.416-8.005 22.578-19.582 10.385-31.696-5.528-82.31-41.552-132.022-52.299-72.173-154.018-149.239-283.602-150.905l83.944 149.162z" fill="#4939bb"/><path d="m378.313 194.569c-214.473 0-358.792 203.922-331.798 286.301 19.282 53.633 104.304-2.681 145.665-62.426l99.799-70.468 86.333-153.407z" fill="#feecf8"/><path d="m76.094 504.898c-1.813 0-3.58-.109-5.298-.334-12.646-1.656-21.855-9.557-26.634-22.848-10.921-33.326 5.261-85.66 42.208-136.647 21.396-29.527 59.244-71.825 118.045-105.652 54.612-31.417 113.119-47.347 173.896-47.347.888 0 1.71.471 2.158 1.238s.456 1.714.021 2.488l-86.333 153.407c-.182.323-.434.602-.737.816l-99.439 70.214c-29.475 42.378-82.302 84.666-117.889 84.667zm297.927-307.802c-129.584 1.666-231.302 78.732-283.602 150.905-36.024 49.713-51.937 100.327-41.529 132.089 4.139 11.509 11.735 18.098 22.555 19.515 15.209 1.989 36.445-6.115 59.791-22.827 22.069-15.798 43.533-37.579 58.888-59.758.167-.241.374-.451.613-.619l99.339-70.144 83.944-149.162z" fill="#4939bb"/><path d="m264.291 500.128c-2.34-36.096-9.626-148.218.773-189.915 9.82-39.378 23.977-103.578 23.977-103.578 41.404-12.066 109.933-18.592 176.681-.504 0 0 27.592 87.428 32.96 115.572 9.296 48.743 6.935 153.149 6.935 179.191-23.02 22.12-83.862 67.222-83.862 67.222l-37.833-29.734-40.168 29.734s-66.91-54.274-79.463-67.988z" fill="#ffeef8"/><path d="m264.291 500.128c-2.34-36.096-9.626-148.218.773-189.915 9.82-39.378 23.977-103.578 23.977-103.578 41.404-12.066 109.933-18.592 176.681-.504 0 0 27.592 87.428 32.96 115.572 9.296 48.743 6.935 153.149 6.935 179.191-23.02 22.12-83.862 67.222-83.862 67.222l-37.833-29.734-40.168 29.734s-66.91-54.274-79.463-67.988z" fill="#fff"/><path d="m421.755 570.615c-.546 0-1.092-.179-1.545-.534l-36.334-28.555-38.635 28.599c-.917.678-2.177.65-3.063-.068-2.738-2.221-67.198-54.548-79.732-68.241-.384-.42-.614-.958-.651-1.526l-.008-.131c-2.382-36.735-9.63-148.526.85-190.551 9.699-38.894 23.82-102.87 23.961-103.512.197-.892.865-1.606 1.742-1.862 41.915-12.213 110.695-18.765 178.034-.517.822.223 1.474.849 1.73 1.661 1.128 3.576 27.698 87.889 33.031 115.856 8.121 42.58 7.411 125.708 7.07 165.658-.05 5.816-.09 10.584-.09 14.002 0 .68-.277 1.331-.768 1.803-22.871 21.976-83.495 66.976-84.105 67.428-.443.328-.966.491-1.489.491zm-37.833-34.733c.546 0 1.092.179 1.545.534l36.33 28.552c9.468-7.063 60.216-45.126 81.322-65.145.007-3.326.045-7.725.089-12.974.34-39.789 1.047-122.584-6.982-164.679-4.922-25.811-29.023-102.974-32.477-113.982-65.157-17.334-131.481-11.242-172.587.437-2.165 9.777-14.772 66.505-23.671 102.192-10.221 40.987-3.179 150.957-.761 188.257 12.502 13.161 67.283 57.888 77.097 65.877l38.608-28.579c.442-.328.965-.491 1.487-.491z" fill="#4939bb"/><path d="m138.471 412.263c61.388-9.807 130.371-8.998 184.144-4.012l33.865 66.361c-62.907 41.874-277.902 104.108-309.965 6.257 21.58-67.787 91.957-68.606 91.957-68.606z" fill="#feecf8"/><path d="m148.693 535.461c-21.713 0-40.761-2.672-56.254-8.039-24.925-8.633-41.176-24.034-48.3-45.775-.011-.035-.022-.07-.032-.105l-1.344-4.805c-.372-1.33.405-2.709 1.734-3.081 1.33-.371 2.709.405 3.081 1.734l1.329 4.751c6.621 20.15 21.817 34.468 45.168 42.555 32.979 11.422 82.855 10.234 140.439-3.346 45.435-10.715 92.695-28.901 118.718-45.604l-32.218-63.134c-63.336-5.764-129.646-4.27-182.149 4.118-1.363.223-2.645-.711-2.863-2.074-.218-1.364.711-2.646 2.074-2.863 53.276-8.51 120.622-9.981 184.769-4.033.853.079 1.607.59 1.996 1.353l33.865 66.361c.577 1.13.215 2.514-.842 3.217-26.438 17.598-74.405 36.253-122.203 47.525-31.732 7.484-61.223 11.242-86.969 11.243z" fill="#4939bb"/><path d="m623.774 404.643c-46.606-4.924-89.656 22.404-104.413 28.765l6.808 78.564c16.382 7.177 151.878 66.747 183.942-31.104-21.58-67.787-86.337-76.226-86.337-76.226z" fill="#feecf8"/><path d="m626.847 538.966c-39.817.002-81.631-15.917-101.592-24.663-.838-.367-1.498-1.202-1.577-2.113l-6.808-78.564c-.093-1.073.512-2.085 1.501-2.512 2.348-1.012 5.563-2.637 9.286-4.517 7.267-3.671 17.219-8.699 28.716-13.225 34.751-13.678 84.038-23.951 121.501 4.781 1.095.84 1.302 2.41.462 3.505-.84 1.096-2.409 1.302-3.505.462-35.609-27.311-83.076-17.302-116.626-4.096-11.281 4.441-21.114 9.408-28.293 13.035-3.005 1.519-5.686 2.873-7.907 3.903l6.527 75.313c27.927 12.085 94.24 36.2 139.757 15.843 18.943-8.473 32.215-23.959 39.447-46.027.43-1.312 1.842-2.027 3.154-1.597s2.027 1.842 1.597 3.154c-7.689 23.464-21.872 39.961-42.156 49.034-13.307 5.952-28.253 8.283-43.482 8.284z" fill="#4939bb"/><path d="m372.499 3.717c42.512-10.884 68.473 23.53 75.71 54.508 3.451 14.772-.917 56.565-.917 56.565l3.932 31.065c-47.747 29.495-120.865 23.634-162.183 1.854l3.591-26.971s1.198-31.446 4.516-57.02c7.368-56.78 56.468-71.723 75.351-60.002z" fill="#1f201b"/><path d="m315.192 74.745c-13.107 58.021 15.252 102.957 40.506 100.346l-1.018 28.909c2.248 14.118 19.637 78.16 25.66 99.319l27.192-102.127c-4.572-22.172-6.462-43.751-4.851-64.556l9.191-31.699c16.325-3.444 18.698-22.096 7.834-28.259-4.85-2.751-11.643-.736-14.728 6.593-19.277-48.802-82.468-44.589-89.787-8.525z" fill="#feecf8"/><g fill="#4939bb"><path d="m380.34 305.819c-1.116 0-2.098-.74-2.404-1.815-5.397-18.961-23.392-84.962-25.724-99.61-.025-.159-.035-.32-.03-.481l.923-26.218c-8.214-.167-16.594-4.657-23.882-12.869-13.582-15.304-26.045-48.213-16.476-90.606 3.292-16.156 17.697-27.675 36.707-29.353 18.204-1.605 43.141 6.237 55.895 32.988 1.655-1.977 3.702-3.423 6.013-4.21 3.203-1.09 6.694-.779 9.577.857 5.747 3.26 8.766 9.843 7.69 16.77-.937 6.033-5.314 13.171-14.76 15.752l-8.716 30.06c-1.503 19.761.076 40.568 4.827 63.603.078.38.067.773-.033 1.148l-27.191 102.127c-.289 1.087-1.269 1.847-2.395 1.857zm-23.152-101.976c2.071 12.57 15.501 62.766 23.087 90.006l24.69-92.731c-4.774-23.369-6.336-44.53-4.776-64.675.013-.17.044-.339.091-.503l9.191-31.699c.257-.887.982-1.56 1.885-1.75 7.982-1.684 11.605-7.295 12.333-11.985.765-4.929-1.233-9.394-5.216-11.654-1.666-.945-3.619-1.113-5.498-.473-2.428.827-4.449 2.908-5.692 5.861-.394.936-1.306 1.511-2.332 1.53-1.016-.011-1.924-.637-2.298-1.582-10.986-27.813-35.285-35.877-52.76-34.34-16.762 1.479-29.421 11.447-32.252 25.394-.004.018-.007.036-.011.054-9.162 40.557 2.533 71.79 15.333 86.212 7.035 7.927 15.016 11.865 22.478 11.096.719-.072 1.435.167 1.964.66.528.494.817 1.192.792 1.915l-1.009 28.665zm-41.996-129.098h.01z"/><path d="m336.586 142.972c2.482-5.168 7.916-5.995 12.494-3.688 6.838-4.726 14.539-2.632 20.033 2.379-11.257 11.043-21.682 13.485-32.527 1.308z"/><path d="m355.699 177.591c-1.381 0-2.5-1.119-2.5-2.5s1.119-2.5 2.5-2.5c16.764 0 31.911-25.39 32.062-25.646.7-1.19 2.232-1.586 3.423-.886 1.19.701 1.586 2.233.885 3.423-.676 1.148-16.78 28.109-36.37 28.109z"/><path d="m426.345 113.936c-1.154 7.954-4.222 14.553-9.43 14.553s-8.518-6.568-9.43-14.553c-1.006-8.809 2.058-14.553 9.43-14.553 5.208 0 10.819 4.979 9.43 14.553z"/></g><path d="m420.098 110.979c-.388 2.677-1.421 4.898-3.174 4.898s-2.867-2.21-3.174-4.898c-.339-2.964.693-4.898 3.174-4.898 1.753 0 3.641 1.676 3.174 4.898z" fill="#fff"/><path d="m389.915 631.149c3.83 2.681 53.234 18.383 101.49 41.701 91.68 134.198 115.24 198.727-7.35 113.789-23.216-2.199-63.558-6.557-97.718-12.053-2.799-15.387-12.375-145.567 3.578-143.437z" fill="#feecf8"/><path d="m558.388 827.452c-10.46 0-31.128-7.889-75.219-38.387-13.83-1.316-58.553-5.79-97.228-12.011-1.046-.169-1.873-.979-2.063-2.021-1.774-9.756-12.213-130.113 1.52-144.51 1.748-1.833 3.6-2.023 4.849-1.853.396.053.773.199 1.1.428 1.071.721 8.004 3.292 16.032 6.269 19.616 7.273 52.448 19.446 85.115 35.231.393.19.73.479.977.841 29.595 43.32 50.109 76.402 62.713 101.138 14.467 28.391 17.998 44.8 11.112 51.641-1.772 1.761-4.387 3.234-8.906 3.234zm-169.87-55.05c38.74 6.149 82.983 10.536 95.773 11.747.427.041.836.19 1.188.435 58.751 40.706 74.27 40.084 78.291 36.087 2.804-2.785 4.967-12.442-12.043-45.824-12.453-24.438-32.74-57.165-62.01-100.036-32.255-15.541-64.665-27.558-84.077-34.755-9.491-3.52-14.216-5.285-16.302-6.358-.083.051-.188.136-.323.277-10.325 10.824-3.545 117.462-.497 138.428z" fill="#4939bb"/><path d="m519.659 893.832c-20.667-42.087-48.556-108.593-48.556-108.593 6.124-1.56 15.158-1.838 23.05-1.254 5.696.421 10.772 3.741 13.367 8.828l1.883 4.549 58.213 87.319-20.298 29.106s-10.747-6.128-27.66-19.955z" fill="#fff"/><path d="m547.317 916.287c-.421 0-.847-.106-1.237-.328-.446-.255-11.123-6.391-28.004-20.191-.278-.228-.504-.512-.662-.834-20.462-41.672-48.338-108.063-48.617-108.729-.281-.671-.257-1.431.068-2.081.324-.651.916-1.129 1.621-1.309 5.886-1.498 14.802-1.993 23.852-1.324 6.547.483 12.452 4.387 15.41 10.186.03.059.058.118.083.18l1.789 4.322 58.077 87.115c.571.855.559 1.974-.03 2.816l-20.298 29.106c-.483.693-1.259 1.07-2.052 1.07zm-25.654-24.047c12.218 9.957 21.188 15.849 24.946 18.193l17.982-25.784-57.267-85.901c-.091-.136-.167-.28-.23-.431l-1.844-4.453c-2.214-4.27-6.424-7.027-11.281-7.387-7.029-.521-14.136-.289-19.382.59 5.5 13.016 29.101 68.502 47.075 105.173z" fill="#4939bb"/><path d="m519.659 893.832c34.17 73.955 53.241 67.396 82.504 63.401-10.4-100.435-27.891-202.508-65.53-305.982-15.053 0-46.761 2.494-65.339 12.311-1.72 12.395 8.238 29.629 28.919 39.97 19.277 25.915 22.979 68.298 9.191 93.83 9.756 24.984 26.993 66.536 33.217 81.489 1.538 3.695.277 8.011-3.09 10.176-4.184 2.69-10.799 5.444-19.872 4.806z" fill="#fff"/><path d="m581.331 961.94c-19.868 0-37.815-10.514-63.941-67.059-.371-.803-.29-1.741.212-2.469s1.352-1.126 2.233-1.074c8.552.604 14.696-2.069 18.344-4.415 2.329-1.498 3.226-4.489 2.134-7.112-6.777-16.28-23.583-56.816-33.238-81.54-.267-.684-.22-1.451.129-2.097 13.322-24.671 9.339-66.04-8.65-90.68-22.84-11.639-31.436-30.026-29.736-42.276.111-.796.597-1.491 1.308-1.866 18.822-9.947 50.661-12.601 66.507-12.601 1.051 0 1.99.657 2.349 1.646 32.795 90.158 53.048 184.71 65.667 306.578.139 1.342-.812 2.553-2.149 2.734-1.352.185-2.682.375-3.993.563-6.015.859-11.672 1.668-17.177 1.668zm-57.713-65.539c30.746 65.133 48.119 62.646 74.183 58.921.539-.076 1.081-.154 1.626-.231-12.514-119.54-32.461-212.662-64.542-301.328-15.518.18-43.818 2.749-61.241 11.405-.703 10.934 8.34 26.455 27.688 36.128.35.175.654.43.888.744 19.397 26.077 23.748 68.606 9.93 95.477 9.696 24.762 26.106 64.34 32.781 80.373 2.024 4.863.322 10.431-4.046 13.239-3.665 2.357-9.458 4.995-17.266 5.272z" fill="#4939bb"/><g clip-path="url(#b)" fill="#1f201b"><path d="m527.463 761.217h36.737v96.808h-36.737z" transform="matrix(.8285395 .55993062 -.55993062 .8285395 546.915 -166.81)"/><path d="m511.974 664.425h36.737v142.87h-36.737z" transform="matrix(.8285395 .55993062 -.55993062 .8285395 502.958 -170.784)"/></g><rect fill="#1f201b" height="38.298" rx="19.149" transform="matrix(-.18693555 -.98237218 .98237218 -.18693555 -92.252 1523.23)" width="342.961" x="412.752" y="780.643"/><path d="m500.213 703.532c-7.021-14.681-9.598-33.102-8.808-47.581-5.079 1.312-14.549 4.952-20.11 7.611 0 0-5.741 23.501 28.919 39.97z" fill="#1a1417"/><path d="m396.227 839.886c-1.088 0-2.088-.716-2.402-1.813-3.626-12.675-7.169-35.133-9.975-63.238-.137-1.374.865-2.599 2.239-2.735 1.37-.146 2.599.864 2.736 2.239 2.777 27.816 6.26 49.963 9.807 62.359.38 1.327-.388 2.711-1.716 3.091-.23.066-.461.098-.689.098z" fill="#fff"/><path d="m491.685 345.347v-.801h-.156c-.778-2.927-3.796-5.062-7.661-5.062h-201.693c-3.866 0-6.757 2.134-7.36 5.062h-.12l.023 10.606h1.57l28.458 159.344c.42 2.354 3.7 4.248 7.329 4.248h152.566c3.628 0 6.795-1.894 7.076-4.248l18.972-159.344h.997v-8.373c.058-.49.056-.969 0-1.433z" fill="#1f201b"/><path d="m312.074 528.662h152.566c3.628 0 6.795-1.894 7.076-4.248l19.969-167.716c.478-4.011-3.02-7.295-7.817-7.295h-201.693c-4.797 0-8.099 3.284-7.383 7.295l29.953 167.716c.42 2.354 3.7 4.248 7.329 4.248z" fill="#1f201b"/><path d="m298.929 396.928h36.549c2.639 0 4.634-1.751 4.455-3.923l-2.47-29.953c-.195-2.366-2.605-4.295-5.382-4.295h-38.456c-2.777 0-4.747 1.929-4.403 4.295l4.357 29.953c.316 2.172 2.71 3.923 5.349 3.923z" fill="#4939bb"/><path d="m313.284 387.637c.407 3.451-2.637 6.225-6.795 6.225s-7.913-2.774-8.39-6.225c-.482-3.484 2.553-6.332 6.782-6.332s7.993 2.848 8.404 6.332z" fill="#1a1417"/><path d="m311.208 370.021c.426 3.617-2.682 6.524-6.938 6.524s-8.108-2.907-8.609-6.524c-.505-3.652 2.592-6.638 6.923-6.638s8.193 2.986 8.623 6.638z" fill="#1a1417"/><path d="m306.223 370.021c.162 1.301-.952 2.353-2.487 2.353s-2.918-1.052-3.089-2.353c-.172-1.306.94-2.367 2.485-2.367s2.929 1.062 3.091 2.367z" fill="#fff"/><path d="m330.535 364.952c.121 1.319-1.034 2.384-2.579 2.384s-2.903-1.066-3.034-2.384c-.131-1.323 1.023-2.399 2.578-2.399s2.914 1.076 3.035 2.399z" fill="#fff"/><path d="m308.414 387.637c.154 1.241-.936 2.245-2.436 2.245s-2.847-1.003-3.011-2.245.925-2.259 2.434-2.259 2.857 1.013 3.012 2.259z" fill="#fff"/><path d="m332.627 379.008c.309 3.406-2.731 6.144-6.788 6.144s-7.647-2.738-8.023-6.144c-.38-3.437 2.653-6.246 6.777-6.246s7.722 2.809 8.033 6.246z" fill="#1f201b"/><path d="m508.912 410.145c-16.145-22.042-53.821-24.885-85.897-6.857-17.572 9.877-19.58 24.033-5.004 32.875-30.265 16.373-20.82 36.545-5.174 36.545-11.14 15.054 1.013 26.428 17.665 26.633-5.267 5.57-4.058 11.998 1.89 16.916 2.307 1.907 20.371 9.274 47.278-8.47 23.213 29.874 52.016 2.855 53.06-5.386 4.635-36.584-4.976-66.531-23.818-92.256z" fill="#feecf8"/><path d="m503.952 524.005c-.767 0-1.546-.031-2.336-.096-8.309-.681-15.862-4.988-22.478-12.809-26.556 16.627-45.102 9.76-48.339 7.083-3.765-3.113-5.88-6.79-6.115-10.633-.126-2.058.301-4.093 1.25-6.031-8.603-1.136-15.438-5.187-18.367-11.088-2.336-4.706-1.962-10.166 1.003-15.674-6.188-1.347-10.965-5.605-12.44-11.432-2.336-9.229 4.063-19.284 17.226-27.365-4.979-4-7.628-8.934-7.541-14.186.126-7.608 5.799-14.948 15.974-20.667 33.208-18.666 72.362-15.345 89.138 7.559 13.776 18.808 21.78 38.385 24.469 59.849.171 1.37-.8 2.62-2.17 2.791-1.37.169-2.62-.8-2.792-2.17-2.58-20.598-10.281-39.412-23.541-57.516-15.307-20.898-51.613-23.602-82.655-6.155-8.437 4.742-13.33 10.716-13.424 16.391-.076 4.544 2.861 8.752 8.492 12.167.766.465 1.225 1.304 1.203 2.199-.022.896-.522 1.711-1.31 2.137-13.345 7.22-20.158 16.093-18.223 23.736 1.228 4.851 5.994 8.11 11.86 8.11.944 0 1.808.532 2.232 1.375.425.843.339 1.853-.223 2.612-3.82 5.163-4.789 10.008-2.802 14.013 2.55 5.138 9.807 8.526 18.488 8.633.993.012 1.884.611 2.271 1.525s.196 1.971-.486 2.692c-1.884 1.993-2.774 4.074-2.645 6.185.149 2.427 1.639 4.877 4.311 7.086 2.307 1.864 19.295 7.866 44.309-8.63 1.09-.718 2.549-.478 3.35.553 6.059 7.797 12.916 12.061 20.381 12.673 10.736.875 19.275-5.852 22.447-8.787 1.013-.938 2.595-.877 3.533.137.938 1.013.876 2.595-.137 3.533-3.43 3.174-12.333 10.195-23.915 10.195z" fill="#4939bb"/><path d="m418.014 438.664c-.865 0-1.706-.449-2.168-1.252-.689-1.196-.279-2.725.918-3.414 28.908-16.659 54.594-20.645 76.344-11.848 1.28.518 1.898 1.975 1.38 3.255-.518 1.279-1.975 1.898-3.255 1.38-20.25-8.189-44.466-4.306-71.973 11.545-.393.227-.823.334-1.246.334z" fill="#4939bb"/><path d="m412.837 475.209c-.617 0-1.236-.228-1.719-.686-1.002-.95-1.044-2.532-.094-3.534 7.263-7.662 34.414-31.85 78.887-21.431 1.344.315 2.179 1.66 1.864 3.004s-1.66 2.179-3.004 1.864c-41.878-9.81-67.318 12.83-74.117 20.002-.492.519-1.153.78-1.815.78z" fill="#4939bb"/><path d="m430.5 501.842c-.453 0-.912-.124-1.325-.382-1.17-.733-1.524-2.275-.792-3.446 6.893-11.006 35.645-28.169 63.758-20.364 1.331.369 2.11 1.747 1.74 3.078s-1.749 2.112-3.078 1.74c-24.723-6.865-51.721 7.883-58.183 18.201-.474.757-1.289 1.173-2.121 1.173z" fill="#4939bb"/></svg>