<?xml version="1.0" encoding="UTF-8"?>
<!DOCTYPE svg  PUBLIC '-//W3C//DTD SVG 1.1//EN'  'http://www.w3.org/Graphics/SVG/1.1/DTD/svg11.dtd'>
<svg enable-background="new 0 0 867.43 139.372" version="1.1" viewBox="0 0 867.43 139.37" xml:space="preserve" xmlns="http://www.w3.org/2000/svg">
<rect x="142.02" y="-524.6" width="1e3" height="240" fill="#53f"/>

	
		
			
				
					<linearGradient id="a" x2="867.43" y1="35.346" y2="35.346" gradientUnits="userSpaceOnUse">
						<stop stop-color="#4ff" offset="0"/>
						<stop stop-color="#4BF8FF" offset=".0367"/>
						<stop stop-color="#5FE5FF" offset=".0902"/>
						<stop stop-color="#7FC5FF" offset=".1542"/>
						<stop stop-color="#AB98FF" offset=".2261"/>
						<stop stop-color="#E460FF" offset=".3038"/>
						<stop stop-color="#FF45FF" offset=".338"/>
					</linearGradient>
					<path d="m34.827 70.692 12.995-17.881h17.465c4.158 0 9.045 0 12.372 0.209-1.871-2.495-4.782-6.759-7.069-10.085l-12.475-18.4-32.644 46.157h-25.471l44.6-62.895c2.911-4.055 7.172-7.797 13.929-7.797 6.446 0 10.708 3.43 13.723 7.797l43.456 62.895h-80.881zm161.67 0h-65.911c-5.406 0-9.98-3.119-9.98-8.732 0-3.223 1.767-6.341 4.678-8.629l25.366-19.96c11.54-9.252 16.53-12.683 19.128-14.555-3.743 0.313-10.083 0.416-23.91 0.416h-27.861l13.723-18.088h64.143c5.406 0 9.98 3.118 9.98 8.733 0 3.118-1.767 6.341-4.678 8.524l-25.678 20.376c-11.435 9.045-16.218 12.58-18.92 14.451 3.43-0.207 16.737-0.416 27.652-0.416h25.263l-12.995 17.88zm670.93-69.548-10.173 12.788h-553.36l-29.94 33.787v22.974h-21.624v-23.08l-42.415-46.469h27.654l16.634 19.336c2.183 2.495 8.004 8.836 9.459 10.917 1.353-1.976 3.743-4.99 8.732-11.021l15.802-19.232h579.23z" fill="url(#a)"/>
				
			
			<path d="m310.36 51.667c6.548 0 11.747 3.742 11.747 10.188 0 6.341-5.199 9.98-11.747 9.98-6.446 0-11.644-3.639-11.644-9.98 1e-3 -6.445 5.198-10.188 11.644-10.188zm67.913-8.04c10.974 0 16.897 4.107 16.897 12.32 0 9.224-5.587 14.744-19.321 14.744h-41.944l8.954-11.579h34.067c3.298 0 4.78-0.942 4.78-3.3 0-2.29-1.482-3.232-4.78-3.232h-24.506c-11.581 0-16.899-5.183-16.899-12.926 0-8.483 5.654-14.003 19.321-14.003h39.116l-8.954 11.714h-31.239c-3.231 0-4.78 0.809-4.78 3.098 0 2.288 1.548 3.164 4.78 3.164h24.508zm87.527 4.511c0 16.091-11.04 23.295-32.92 23.295-21.949 0-32.922-7.204-32.922-23.295 0-16.09 10.974-23.228 32.922-23.228 21.88 0 32.92 7.138 32.92 23.228zm-13.868 0c0-9.695-5.049-11.512-19.052-11.512s-19.053 1.817-19.053 11.512 5.05 11.581 19.053 11.581 19.052-1.886 19.052-11.581zm69.756 10.975-9.021 11.579h-39.789v-45.041h13.937v33.461h34.873zm63.156-8.08c0 13.601-9.358 20.4-28.076 20.4-21.677 0-31.035-6.8-31.035-20.4v-25.382h13.868v25.381c0 6.667 2.827 8.821 17.167 8.821 10.707 0 14.073-2.492 14.073-8.821v-25.381h14.003v25.382zm63.829-25.382-9.021 11.714h-16.091v33.326h-13.938v-33.325h-21.138l9.021-11.714h51.167zm18.385 45.041h-13.935v-45.041h13.935v45.041zm73.116-22.554c0 16.091-11.042 23.295-32.921 23.295-21.947 0-32.924-7.204-32.924-23.295 0-16.09 10.977-23.228 32.924-23.228 21.879 0 32.921 7.138 32.921 23.228zm-13.869 0c0-9.695-5.05-11.512-19.052-11.512-14.005 0-19.055 1.817-19.055 11.512s5.05 11.581 19.055 11.581c14.002 0 19.052-1.886 19.052-11.581zm61.005 20.871-27.604-24.775v26.458h-12.656v-37.366c0-5.992 3.636-8.416 7.607-8.416 1.683 0 3.366 0.405 5.589 2.424l27.601 24.776v-26.459h12.726v37.299c0 5.992-3.636 8.483-7.676 8.483-1.749 0-3.433-0.405-5.587-2.424zm63.221-25.382c10.974 0 16.9 4.107 16.9 12.32 0 9.224-5.589 14.744-19.324 14.744h-41.944l8.955-11.579h34.067c3.299 0 4.78-0.942 4.78-3.3 0-2.29-1.481-3.232-4.78-3.232h-24.507c-11.578 0-16.897-5.183-16.897-12.926 0-8.483 5.654-14.003 19.321-14.003h39.117l-8.956 11.714h-31.237c-3.232 0-4.782 0.809-4.782 3.098 0 2.288 1.55 3.164 4.782 3.164h24.505z" fill="#53f"/>
		
	
	<g fill="#53f">
		<path d="m107.36 101.53h17.439v4.1h-12.883v8.262h12.666v3.988h-12.666v8.328h12.883v4.098h-17.439v-28.776z"/>
		<path d="m141.78 120.8 7.717 9.504h-5.275l-5.275-6.627-5.276 6.627h-4.948l7.695-9.199-6.911-8.697h5.297l4.382 5.711 4.512-5.711h4.861l-6.779 8.392z"/>
		<path d="m157.48 139.37h-4.621v-26.965h4.687v3.117c0.16-0.436 0.534-0.938 1.123-1.504 0.588-0.566 1.37-1.064 2.343-1.494 0.974-0.428 2.085-0.643 3.335-0.643 1.686 0 3.164 0.402 4.436 1.209 1.271 0.807 2.267 1.922 2.987 3.348 0.719 1.424 1.079 3.066 1.079 4.926 0 1.861-0.37 3.502-1.111 4.928-0.741 1.424-1.763 2.535-3.063 3.334-1.301 0.799-2.794 1.199-4.48 1.199-1.323 0-2.471-0.244-3.444-0.73s-1.737-1.035-2.289-1.645c-0.552-0.611-0.879-1.098-0.981-1.461v12.381zm10.769-18.006c0-1.148-0.24-2.15-0.719-3.008s-1.116-1.523-1.908-1.994c-0.792-0.473-1.66-0.709-2.605-0.709-1.017 0-1.94 0.242-2.769 0.73-0.828 0.486-1.486 1.154-1.973 2.006-0.487 0.85-0.73 1.842-0.73 2.975s0.243 2.125 0.73 2.977c0.487 0.85 1.145 1.514 1.973 1.994 0.829 0.479 1.751 0.719 2.769 0.719 0.945 0 1.813-0.232 2.605-0.697s1.428-1.127 1.908-1.984 0.719-1.861 0.719-3.009z"/>
		<path d="m181.04 130.3h-4.644v-17.896h4.644v2.986h-0.109c0.102-0.363 0.381-0.818 0.839-1.363s1.093-1.039 1.907-1.482 1.795-0.664 2.943-0.664c0.829 0 1.57 0.117 2.224 0.348 0.654 0.234 1.119 0.467 1.395 0.699l-1.875 3.836c-0.189-0.232-0.542-0.461-1.057-0.688-0.516-0.225-1.152-0.338-1.908-0.338-0.945 0-1.741 0.277-2.387 0.83-0.646 0.551-1.137 1.213-1.471 1.982-0.334 0.771-0.501 1.49-0.501 2.158v9.592z"/>
		<path d="m195.28 122.46c0.029 0.945 0.254 1.795 0.676 2.551 0.421 0.756 1.042 1.348 1.864 1.777 0.821 0.428 1.828 0.643 3.019 0.643 1.032 0 1.922-0.143 2.67-0.426s1.37-0.625 1.864-1.023c0.494-0.4 0.857-0.775 1.09-1.123l2.071 2.813c-0.451 0.609-1.017 1.154-1.7 1.635-0.683 0.479-1.53 0.854-2.54 1.123-1.01 0.268-2.256 0.402-3.739 0.402-1.948 0-3.641-0.4-5.079-1.199-1.439-0.799-2.555-1.926-3.346-3.379-0.792-1.453-1.188-3.152-1.188-5.102 0-1.742 0.363-3.316 1.09-4.719 0.727-1.402 1.784-2.51 3.172-3.324s3.055-1.221 5.003-1.221c1.816 0 3.393 0.363 4.73 1.09s2.372 1.77 3.106 3.129c0.733 1.357 1.101 2.996 1.101 4.916 0 0.115-3e-3 0.355-0.011 0.719s-0.025 0.604-0.055 0.719h-13.798zm9.504-3.401c-0.015-0.465-0.171-0.996-0.469-1.592s-0.774-1.115-1.428-1.559-1.526-0.664-2.616-0.664c-1.12 0-2.027 0.215-2.725 0.643-0.698 0.43-1.214 0.938-1.548 1.525-0.334 0.59-0.531 1.139-0.588 1.646h9.374z"/>
		<path d="m220.21 111.88c1.003 0 1.933 0.094 2.791 0.283 0.857 0.189 1.591 0.414 2.202 0.676s1.032 0.48 1.265 0.654l-1.701 2.877c-0.291-0.246-0.81-0.529-1.559-0.85s-1.588-0.48-2.518-0.48c-0.931 0-1.715 0.168-2.354 0.502-0.64 0.334-0.959 0.836-0.959 1.504 0 0.654 0.338 1.178 1.014 1.57s1.595 0.719 2.758 0.98c0.959 0.219 1.875 0.52 2.747 0.904 0.872 0.385 1.588 0.93 2.147 1.635s0.839 1.646 0.839 2.824c0 1.119-0.236 2.053-0.708 2.801-0.473 0.748-1.101 1.348-1.886 1.799-0.785 0.449-1.653 0.773-2.605 0.969-0.952 0.197-1.908 0.295-2.867 0.295-1.177 0-2.227-0.117-3.15-0.348-0.923-0.232-1.689-0.506-2.3-0.818s-1.046-0.578-1.308-0.795l1.7-3.227c0.378 0.363 0.996 0.744 1.853 1.145 0.857 0.398 1.816 0.6 2.877 0.6 1.134 0 2.042-0.219 2.725-0.654s1.024-1.018 1.024-1.744c0-0.537-0.163-0.975-0.49-1.309s-0.774-0.602-1.341-0.807c-0.567-0.203-1.199-0.385-1.896-0.545-0.654-0.16-1.312-0.367-1.973-0.621-0.662-0.254-1.269-0.588-1.82-1.002-0.553-0.414-0.996-0.934-1.33-1.559s-0.501-1.359-0.501-2.203c0-1.074 0.341-1.99 1.025-2.746 0.683-0.756 1.584-1.33 2.703-1.723 1.118-0.391 2.318-0.587 3.596-0.587z"/>
		<path d="m238.13 111.88c1.003 0 1.933 0.094 2.791 0.283 0.857 0.189 1.591 0.414 2.202 0.676s1.032 0.48 1.265 0.654l-1.701 2.877c-0.291-0.246-0.81-0.529-1.559-0.85s-1.588-0.48-2.518-0.48c-0.931 0-1.715 0.168-2.354 0.502-0.64 0.334-0.959 0.836-0.959 1.504 0 0.654 0.338 1.178 1.014 1.57s1.595 0.719 2.758 0.98c0.959 0.219 1.875 0.52 2.747 0.904 0.872 0.385 1.588 0.93 2.147 1.635s0.839 1.646 0.839 2.824c0 1.119-0.236 2.053-0.708 2.801-0.473 0.748-1.101 1.348-1.886 1.799-0.785 0.449-1.653 0.773-2.605 0.969-0.952 0.197-1.908 0.295-2.867 0.295-1.177 0-2.227-0.117-3.15-0.348-0.923-0.232-1.689-0.506-2.3-0.818s-1.046-0.578-1.308-0.795l1.7-3.227c0.378 0.363 0.996 0.744 1.853 1.145 0.857 0.398 1.816 0.6 2.877 0.6 1.134 0 2.042-0.219 2.725-0.654s1.024-1.018 1.024-1.744c0-0.537-0.163-0.975-0.49-1.309s-0.774-0.602-1.341-0.807c-0.567-0.203-1.199-0.385-1.896-0.545-0.654-0.16-1.312-0.367-1.973-0.621-0.662-0.254-1.269-0.588-1.82-1.002-0.553-0.414-0.996-0.934-1.33-1.559s-0.501-1.359-0.501-2.203c0-1.074 0.341-1.99 1.025-2.746 0.683-0.756 1.584-1.33 2.703-1.723 1.118-0.391 2.317-0.587 3.596-0.587z"/>
		<path d="m267.93 126.14 5.668-13.732h4.644l-12.165 26.965h-4.708l4.098-9.068-7.412-17.896h4.708l5.167 13.731z"/>
		<path d="m289.38 130.83c-1.875 0-3.542-0.41-5.003-1.23-1.46-0.822-2.605-1.941-3.434-3.357-0.828-1.418-1.242-3.027-1.242-4.83 0-1.801 0.414-3.422 1.242-4.861 0.829-1.438 1.973-2.574 3.434-3.41s3.128-1.254 5.003-1.254 3.532 0.418 4.97 1.254c1.439 0.836 2.569 1.973 3.39 3.41 0.821 1.439 1.231 3.061 1.231 4.861 0 1.803-0.411 3.412-1.231 4.83-0.821 1.416-1.951 2.535-3.39 3.357-1.438 0.82-3.095 1.23-4.97 1.23zm0-3.924c1.046 0 1.955-0.24 2.725-0.719 0.77-0.48 1.366-1.135 1.788-1.963 0.421-0.828 0.632-1.773 0.632-2.834s-0.211-2.008-0.632-2.844c-0.422-0.836-1.018-1.502-1.788-1.996-0.771-0.492-1.679-0.74-2.725-0.74s-1.958 0.248-2.736 0.74c-0.777 0.494-1.381 1.16-1.809 1.996-0.429 0.836-0.643 1.783-0.643 2.844s0.214 2.006 0.643 2.834c0.428 0.828 1.032 1.482 1.809 1.963 0.777 0.479 1.689 0.719 2.736 0.719z"/>
		<path d="m307.3 121.19c0 1.744 0.359 3.131 1.079 4.164 0.719 1.031 1.856 1.547 3.412 1.547 1.569 0 2.71-0.516 3.422-1.547 0.712-1.033 1.068-2.42 1.068-4.164v-8.785h4.621v9.373c0 1.803-0.356 3.383-1.068 4.742s-1.744 2.416-3.096 3.172-3.001 1.133-4.948 1.133c-1.933 0-3.575-0.377-4.927-1.133s-2.384-1.813-3.096-3.172-1.068-2.939-1.068-4.742v-9.373h4.6v8.785z"/>
		<path d="m330.15 130.3h-4.644v-17.896h4.644v2.986h-0.109c0.102-0.363 0.381-0.818 0.839-1.363s1.093-1.039 1.907-1.482 1.795-0.664 2.943-0.664c0.829 0 1.57 0.117 2.224 0.348 0.654 0.234 1.119 0.467 1.395 0.699l-1.875 3.836c-0.189-0.232-0.542-0.461-1.057-0.688-0.516-0.225-1.152-0.338-1.908-0.338-0.945 0-1.741 0.277-2.387 0.83-0.646 0.551-1.137 1.213-1.471 1.982-0.334 0.771-0.501 1.49-0.501 2.158v9.592z"/>
		<path d="m351.16 112.41h3.357v-7.348h4.622v7.348h4.425v3.924h-4.425v7.65c0 0.961 0.164 1.68 0.491 2.158 0.327 0.48 0.795 0.721 1.406 0.721 0.509 0 0.912-0.096 1.21-0.283 0.298-0.189 0.476-0.32 0.534-0.393l1.722 3.379c-0.087 0.086-0.342 0.232-0.763 0.436s-0.967 0.393-1.635 0.566c-0.669 0.174-1.432 0.262-2.289 0.262-1.512 0-2.772-0.451-3.782-1.352-1.01-0.9-1.515-2.311-1.515-4.229v-8.916h-3.357v-3.923z"/>
		<path d="m381.77 130.3v-3.313c-0.117 0.348-0.447 0.828-0.992 1.438-0.545 0.611-1.286 1.164-2.223 1.658-0.938 0.494-2.046 0.74-3.325 0.74-1.671 0-3.175-0.4-4.512-1.199s-2.391-1.91-3.161-3.334c-0.771-1.426-1.155-3.066-1.155-4.928 0-1.859 0.385-3.502 1.155-4.926 0.77-1.426 1.824-2.541 3.161-3.348s2.841-1.209 4.512-1.209c1.25 0 2.333 0.217 3.248 0.654 0.916 0.436 1.653 0.938 2.213 1.504 0.559 0.566 0.905 1.061 1.035 1.482v-3.117h4.622v17.896h-4.578zm-10.769-8.937c0 1.148 0.254 2.15 0.763 3.008s1.174 1.52 1.995 1.984c0.821 0.465 1.704 0.697 2.648 0.697 1.017 0 1.922-0.24 2.714-0.719 0.792-0.48 1.417-1.145 1.875-1.994 0.458-0.852 0.687-1.844 0.687-2.977s-0.229-2.125-0.687-2.975c-0.458-0.852-1.083-1.52-1.875-2.006-0.792-0.488-1.697-0.73-2.714-0.73-0.945 0-1.828 0.236-2.648 0.709-0.821 0.471-1.486 1.137-1.995 1.994s-0.763 1.86-0.763 3.009z"/>
		<path d="m395.92 130.3h-4.687v-29.996h4.687v29.996z"/>
		<path d="m404.22 122.46c0.029 0.945 0.254 1.795 0.676 2.551 0.421 0.756 1.042 1.348 1.864 1.777 0.821 0.428 1.828 0.643 3.019 0.643 1.032 0 1.922-0.143 2.67-0.426s1.37-0.625 1.864-1.023c0.494-0.4 0.857-0.775 1.09-1.123l2.071 2.813c-0.451 0.609-1.017 1.154-1.7 1.635-0.683 0.479-1.53 0.854-2.54 1.123-1.01 0.268-2.256 0.402-3.739 0.402-1.948 0-3.641-0.4-5.079-1.199-1.439-0.799-2.555-1.926-3.346-3.379-0.792-1.453-1.188-3.152-1.188-5.102 0-1.742 0.363-3.316 1.09-4.719 0.727-1.402 1.784-2.51 3.172-3.324s3.055-1.221 5.003-1.221c1.816 0 3.393 0.363 4.73 1.09s2.372 1.77 3.106 3.129c0.733 1.357 1.101 2.996 1.101 4.916 0 0.115-3e-3 0.355-0.011 0.719s-0.025 0.604-0.055 0.719h-13.798zm9.504-3.401c-0.015-0.465-0.171-0.996-0.469-1.592s-0.774-1.115-1.428-1.559-1.526-0.664-2.616-0.664c-1.12 0-2.027 0.215-2.725 0.643-0.698 0.43-1.214 0.938-1.548 1.525-0.334 0.59-0.531 1.139-0.588 1.646h9.374z"/>
		<path d="m432.76 111.88c1.206 0 2.376 0.246 3.509 0.74 1.134 0.494 2.067 1.283 2.802 2.365 0.733 1.084 1.101 2.49 1.101 4.219v11.096h-4.687v-10.246c0-1.613-0.382-2.801-1.145-3.563-0.763-0.764-1.748-1.145-2.954-1.145-0.799 0-1.563 0.225-2.289 0.676-0.727 0.449-1.319 1.061-1.776 1.83-0.458 0.771-0.687 1.656-0.687 2.66v9.787h-4.665v-17.896h4.665v3.008c0.131-0.494 0.483-1.014 1.058-1.559 0.574-0.545 1.304-1.01 2.191-1.395 0.886-0.383 1.845-0.577 2.877-0.577z"/>
		<path d="m443.28 112.41h3.357v-7.348h4.621v7.348h4.426v3.924h-4.426v7.65c0 0.961 0.164 1.68 0.491 2.158 0.327 0.48 0.796 0.721 1.406 0.721 0.508 0 0.911-0.096 1.209-0.283 0.298-0.189 0.477-0.32 0.534-0.393l1.723 3.379c-0.087 0.086-0.342 0.232-0.763 0.436-0.422 0.203-0.967 0.393-1.636 0.566-0.668 0.174-1.432 0.262-2.289 0.262-1.511 0-2.771-0.451-3.782-1.352-1.01-0.9-1.515-2.311-1.515-4.229v-8.916h-3.357v-3.923z"/>
		<path d="m463.28 124.22c0.944 0 1.759 0.338 2.441 1.014 0.684 0.676 1.025 1.604 1.025 2.779 0 1.148-0.237 2.246-0.709 3.293-0.473 1.045-1.09 1.986-1.853 2.822-0.764 0.836-1.588 1.494-2.475 1.973l-1.548-1.613c0.465-0.232 0.963-0.545 1.493-0.938s1.014-0.846 1.45-1.361c0.436-0.518 0.727-1.072 0.872-1.668-0.306 0.16-0.684 0.24-1.134 0.24-0.785 0-1.472-0.299-2.061-0.895-0.588-0.596-0.883-1.352-0.883-2.268 0-0.639 0.149-1.213 0.447-1.723 0.298-0.508 0.704-0.91 1.221-1.209 0.519-0.295 1.089-0.446 1.714-0.446z"/>
		<path d="m495.36 117.83-4.425 12.469h-4.578l-5.188-17.896h4.948l3.118 12.861 4.381-12.514h3.51l4.339 12.514 3.16-12.861h4.949l-5.167 17.896h-4.578l-4.469-12.469z"/>
		<path d="m515.98 122.46c0.029 0.945 0.255 1.795 0.676 2.551 0.422 0.756 1.043 1.348 1.864 1.777 0.821 0.428 1.827 0.643 3.02 0.643 1.031 0 1.922-0.143 2.67-0.426 0.749-0.283 1.37-0.625 1.864-1.023 0.494-0.4 0.857-0.775 1.09-1.123l2.071 2.813c-0.451 0.609-1.018 1.154-1.701 1.635-0.683 0.479-1.529 0.854-2.539 1.123-1.011 0.268-2.257 0.402-3.738 0.402-1.948 0-3.641-0.4-5.08-1.199-1.438-0.799-2.554-1.926-3.346-3.379-0.793-1.453-1.188-3.152-1.188-5.102 0-1.742 0.363-3.316 1.09-4.719s1.784-2.51 3.172-3.324 3.056-1.221 5.003-1.221c1.816 0 3.394 0.363 4.73 1.09s2.373 1.77 3.106 3.129c0.734 1.357 1.102 2.996 1.102 4.916 0 0.115-4e-3 0.355-0.011 0.719-8e-3 0.363-0.026 0.604-0.055 0.719h-13.8zm9.505-3.401c-0.015-0.465-0.171-0.996-0.469-1.592s-0.773-1.115-1.428-1.559-1.526-0.664-2.616-0.664c-1.119 0-2.027 0.215-2.725 0.643-0.697 0.43-1.214 0.938-1.548 1.525-0.334 0.59-0.53 1.139-0.589 1.646h9.375z"/>
		<path d="m536.32 101.48c0.683 0 1.254 0.244 1.711 0.73 0.458 0.486 0.688 1.158 0.688 2.016 0 1.018-0.204 2.275-0.61 3.771-0.407 1.498-0.836 2.98-1.287 4.447h-1.569c-0.203-0.945-0.407-1.926-0.61-2.943-0.203-1.016-0.374-1.986-0.512-2.91-0.139-0.922-0.207-1.711-0.207-2.365 0-0.857 0.231-1.529 0.697-2.016 0.464-0.486 1.03-0.73 1.699-0.73z"/>
		<path d="m548.62 130.3h-4.687v-29.996h4.687v29.996z"/>
		<path d="m558.47 130.3h-4.687v-29.996h4.687v29.996z"/>
		<path d="m588.86 130.3v-3.313c-0.116 0.348-0.446 0.828-0.991 1.438-0.545 0.611-1.286 1.164-2.224 1.658s-2.046 0.74-3.324 0.74c-1.672 0-3.176-0.4-4.513-1.199-1.338-0.799-2.391-1.91-3.161-3.334-0.771-1.426-1.155-3.066-1.155-4.928 0-1.859 0.385-3.502 1.155-4.926 0.771-1.426 1.823-2.541 3.161-3.348 1.337-0.807 2.841-1.209 4.513-1.209 1.249 0 2.332 0.217 3.248 0.654 0.915 0.436 1.652 0.938 2.212 1.504s0.905 1.061 1.036 1.482v-3.117h4.621v17.896h-4.578zm-10.768-8.937c0 1.148 0.254 2.15 0.763 3.008s1.174 1.52 1.995 1.984c0.82 0.465 1.703 0.697 2.648 0.697 1.017 0 1.922-0.24 2.714-0.719 0.792-0.48 1.417-1.145 1.875-1.994 0.458-0.852 0.687-1.844 0.687-2.977s-0.229-2.125-0.687-2.975c-0.458-0.852-1.083-1.52-1.875-2.006-0.792-0.488-1.697-0.73-2.714-0.73-0.945 0-1.828 0.236-2.648 0.709-0.821 0.471-1.486 1.137-1.995 1.994s-0.763 1.86-0.763 3.009z"/>
		<path d="m620.69 111.88c1.337 0 2.488 0.283 3.455 0.85s1.715 1.439 2.245 2.617c0.531 1.176 0.796 2.68 0.796 4.512v10.441h-4.6v-9.613c0-1.729-0.243-3.045-0.73-3.945-0.486-0.9-1.398-1.352-2.735-1.352-0.727 0-1.41 0.195-2.05 0.588s-1.151 0.979-1.536 1.756c-0.386 0.777-0.578 1.762-0.578 2.953v9.613h-4.316v-9.613c0-1.729-0.294-3.045-0.883-3.945s-1.464-1.352-2.627-1.352c-0.741 0-1.424 0.189-2.049 0.566-0.625 0.379-1.126 0.959-1.504 1.744s-0.567 1.781-0.567 2.986v9.613h-4.621v-17.896h4.621v2.682c0.16-0.451 0.52-0.924 1.079-1.418s1.261-0.916 2.104-1.264c0.843-0.35 1.767-0.523 2.769-0.523 1.091 0 1.995 0.199 2.715 0.6 0.719 0.4 1.293 0.896 1.722 1.492 0.429 0.598 0.745 1.193 0.948 1.789 0.203-0.596 0.6-1.191 1.188-1.789 0.588-0.596 1.326-1.092 2.212-1.492s1.867-0.6 2.942-0.6z"/>
		<path d="m636.65 139.37h-4.622v-26.965h4.688v3.117c0.159-0.436 0.534-0.938 1.122-1.504 0.589-0.566 1.37-1.064 2.344-1.494 0.974-0.428 2.085-0.643 3.335-0.643 1.687 0 3.165 0.402 4.437 1.209s2.268 1.922 2.986 3.348c0.72 1.424 1.079 3.066 1.079 4.926 0 1.861-0.37 3.502-1.111 4.928-0.741 1.424-1.763 2.535-3.063 3.334s-2.794 1.199-4.479 1.199c-1.322 0-2.471-0.244-3.444-0.73s-1.736-1.035-2.289-1.645c-0.553-0.611-0.879-1.098-0.98-1.461v12.381zm10.768-18.006c0-1.148-0.239-2.15-0.72-3.008-0.479-0.857-1.115-1.523-1.907-1.994-0.792-0.473-1.66-0.709-2.604-0.709-1.018 0-1.94 0.242-2.769 0.73-0.829 0.486-1.486 1.154-1.974 2.006-0.486 0.85-0.729 1.842-0.729 2.975s0.243 2.125 0.729 2.977c0.487 0.85 1.145 1.514 1.974 1.994 0.828 0.479 1.751 0.719 2.769 0.719 0.944 0 1.813-0.232 2.604-0.697s1.428-1.127 1.907-1.984c0.481-0.859 0.72-1.861 0.72-3.009z"/>
		<path d="m660.54 130.3h-4.687v-29.996h4.687v29.996z"/>
		<path d="m668.36 107.04c-0.784 0-1.457-0.283-2.017-0.85s-0.839-1.242-0.839-2.027 0.279-1.465 0.839-2.039 1.232-0.861 2.017-0.861c0.523 0 1.007 0.135 1.45 0.404s0.799 0.617 1.068 1.047c0.269 0.428 0.403 0.912 0.403 1.449 0 0.785-0.284 1.461-0.851 2.027s-1.255 0.85-2.07 0.85zm-2.376 23.26v-17.896h4.644v17.896h-4.644z"/>
		<path d="m674.49 112.41h3.444v-4.971c0-1.787 0.335-3.244 1.003-4.371 0.669-1.125 1.522-1.955 2.562-2.484 1.039-0.531 2.111-0.797 3.216-0.797 1.352 0 2.387 0.186 3.106 0.557s1.158 0.629 1.318 0.773l-1.831 3.488c-0.087-0.088-0.305-0.244-0.654-0.469s-0.82-0.338-1.416-0.338c-0.437 0-0.854 0.102-1.254 0.305-0.4 0.205-0.738 0.604-1.014 1.199-0.276 0.596-0.414 1.469-0.414 2.617v4.49h4.904v3.924h-4.904v13.973h-4.622v-13.973h-3.444v-3.923z"/>
		<path d="m698.6 126.14 5.668-13.732h4.644l-12.164 26.965h-4.709l4.099-9.068-7.412-17.896h4.709l5.165 13.731z"/>
		<path d="m725.32 107.04c-0.784 0-1.457-0.283-2.017-0.85s-0.839-1.242-0.839-2.027 0.279-1.465 0.839-2.039 1.232-0.861 2.017-0.861c0.523 0 1.007 0.135 1.45 0.404s0.799 0.617 1.068 1.047c0.269 0.428 0.403 0.912 0.403 1.449 0 0.785-0.284 1.461-0.851 2.027s-1.255 0.85-2.07 0.85zm-2.376 23.26v-17.896h4.644v17.896h-4.644z"/>
		<path d="m731.51 112.41h3.357v-7.348h4.621v7.348h4.426v3.924h-4.426v7.65c0 0.961 0.164 1.68 0.491 2.158 0.327 0.48 0.796 0.721 1.406 0.721 0.508 0 0.911-0.096 1.209-0.283 0.298-0.189 0.477-0.32 0.534-0.393l1.723 3.379c-0.087 0.086-0.342 0.232-0.763 0.436-0.422 0.203-0.967 0.393-1.636 0.566-0.668 0.174-1.432 0.262-2.289 0.262-1.511 0-2.771-0.451-3.782-1.352-1.01-0.9-1.515-2.311-1.515-4.229v-8.916h-3.357v-3.923z"/>
		<path d="m752.07 130.83c-0.887 0-1.646-0.316-2.278-0.947-0.632-0.633-0.948-1.398-0.948-2.301 0-0.9 0.316-1.672 0.948-2.311s1.392-0.959 2.278-0.959c0.915 0 1.689 0.32 2.321 0.959s0.948 1.41 0.948 2.311c0 0.902-0.316 1.668-0.948 2.301-0.631 0.63-1.406 0.947-2.321 0.947z"/>
	</g>

<rect x="-192.57" y="-489.31" width="292.86" height="211.43" fill="#493AB8"/>
</svg>
