<svg enable-background="new 0 0 1658.448 1154.448" height="500px" viewBox="0 0 1658.448 1154.448" width="500" xmlns="http://www.w3.org/2000/svg"><path d="m1038.757 403.491h94.213l-14.469-112.016-107.319 22.399z" fill="#0fb3e3"/><path d="m1465.138 844.846c-3.056-16.755-9.146-37.871-17.391-61.438-36.232-103.567-103.603 58.73-103.603 58.73l36.995 61.906c-2.724 39.62 2.971 103.253 13.127 148.985 0 0 100.601-147 107.688-166.369 8.633-23.594-36.816-41.814-36.816-41.814z" fill="#feecf8"/><path d="m1394.267 1055.529c-.157 0-.315-.015-.474-.045-.979-.189-1.751-.94-1.967-1.913-10.15-45.707-15.81-109.516-13.233-148.915l-36.593-61.235c-.406-.679-.467-1.51-.163-2.241 1.615-3.892 39.774-94.818 75.562-94.818.2 0 .398.003.598.008 13.03.371 23.834 12.555 32.11 36.213 8.386 23.967 14.184 44.304 17.243 60.481 3.309 1.43 12.401 5.615 20.907 11.822 14.449 10.545 19.998 21.829 16.045 32.633-7.112 19.439-103.857 160.909-107.972 166.922-.471.689-1.247 1.088-2.063 1.088zm-47.324-213.583 36.344 60.816c.261.438.383.945.348 1.454-2.566 37.329 2.499 97.493 11.854 142.59 17.383-25.501 97.936-144.106 104.119-161.004 7.709-21.073-34.967-38.461-35.399-38.634-.797-.32-1.375-1.027-1.528-1.872-2.942-16.132-8.76-36.676-17.291-61.061-7.522-21.503-16.786-32.561-27.533-32.866-13.25-.374-29.698 15.202-47.673 45.055-12.109 20.108-21.1 40.529-23.241 45.522z" fill="#4939bb"/><path d="m1032.673 320.924 311.472 521.214c12.627 18.768 152.023-56.434 150.739-106.988-52.851-99.957-148.104-181.798-191.872-251.617-33.951-54.159-153.388-245.209-153.388-245.209z" fill="#feecf8"/><path d="m1352.283 847.569c-4.986 0-8.401-1.345-10.212-4.036-.025-.037-.049-.075-.072-.113l-311.472-521.214c-.67-1.122-.363-2.571.704-3.324l116.951-82.6c.561-.396 1.258-.545 1.936-.409.674.136 1.263.543 1.627 1.126 1.194 1.91 119.823 191.668 153.386 245.207 18 28.713 45.133 59.903 73.858 92.924 40.771 46.866 86.98 99.985 118.105 158.853.181.341.279.719.289 1.105.619 24.396-29.092 50.996-46.857 64.68-24.782 19.089-56.999 36.88-80.166 44.271-7.378 2.354-13.414 3.53-18.077 3.53zm-6.033-6.782c1.596 2.254 8.352 3.03 22.59-1.512 22.667-7.231 54.268-24.7 78.634-43.469 29.038-22.367 44.957-43.649 44.919-60.018-30.854-58.147-76.707-110.858-117.177-157.377-28.857-33.172-56.115-64.505-74.322-93.549-31.579-50.375-138.461-221.333-151.987-242.969l-112.899 79.738z" fill="#4939bb"/><path d="m1578.08 536.402s-76.457-160.621-88.683-177.23c-16.236-22.058-52.726 4.49-75.322 35.894-86.29 31.558-176.826 88.631-211.173 150.349 0 0-72.868 123.299-67.067 123.63 128.157 7.317 279.421-129.846 331.822-181.738 32.706 18.576 75.586 37.787 110.423 49.095z" fill="#feecf8"/><path d="m1145.867 671.827c-3.429 0-6.818-.096-10.174-.287-.985-.056-1.852-.611-2.317-1.483-1.034-1.939-2.321-4.352 32.688-66.026 16.979-29.912 34.512-59.592 34.687-59.888 16.245-29.192 46.286-59.39 86.844-87.272 36.298-24.954 80.627-47.626 124.903-63.889 16.096-22.14 41.002-44.32 60.841-44.427h.146c7.434 0 13.464 3.073 17.927 9.136 12.227 16.611 85.8 171.071 88.926 177.638.43.902.281 1.973-.378 2.723-.657.751-1.704 1.038-2.65.729-33.587-10.901-76.244-29.801-109.237-48.368-25.746 25.389-76.558 72.457-136.539 112.053-69.779 46.061-132.175 69.36-185.667 69.361zm-7.385-5.155c54.086 2.288 118.084-20.711 190.296-68.381 60.685-40.06 111.958-87.844 137.121-112.762.795-.788 2.019-.951 2.993-.397 31.166 17.703 71.477 35.834 104.401 47.043-13.346-27.932-75.21-156.986-85.909-171.521-3.516-4.777-8.063-7.1-13.899-7.1-.04 0-.079 0-.12 0-15.569.084-39.116 17.755-57.26 42.972-.293.406-.7.716-1.171.888-96.715 35.371-179.085 93.941-209.847 149.217-24.231 41.003-61.942 106.826-66.605 120.041z" fill="#4939bb"/><path d="m1124.57 247.296c-57.667 142.37-91.201 369.436-5.981 419.846 69.459 41.087 226.792-26.765 303.147-57.618 22.502-54.026-23.497-184.718-61.787-191.479-26.686 11.352-118.074 63.446-151.915 117.791l59.018-274.418c-.001 0-54.348-65.973-142.482-14.122z" fill="#feecf8"/><path d="m1175.686 682.579c-24.056 0-43.395-4.428-58.37-13.286-20.8-12.303-35.696-35.307-44.274-68.37-7.639-29.441-10.175-66.238-7.541-109.371 4.733-77.486 25.949-169.147 56.752-245.194.207-.51.575-.937 1.05-1.216 46.407-27.302 83.531-21.891 106.501-12.544 24.902 10.133 38.606 26.537 39.178 27.231.485.59.675 1.369.515 2.115l-56.367 262.092c38.421-51.014 120.021-97.308 145.842-108.292.445-.19.938-.245 1.413-.161 8.541 1.508 22.052 9.39 37.913 38.378 24.937 45.572 41.233 119.343 25.747 156.524-.257.617-.751 1.106-1.371 1.357-4.005 1.618-8.233 3.339-12.66 5.14-40.643 16.536-96.305 39.182-150.868 53.143-32.45 8.301-60.167 12.454-83.46 12.454zm-49.118-433.556c-30.438 75.417-51.391 166.125-56.076 242.833-2.603 42.607-.116 78.88 7.39 107.811 8.234 31.738 22.358 53.716 41.979 65.323 64.751 38.3 210.151-20.858 288.268-52.64 4.07-1.656 7.973-3.244 11.688-4.747 14.26-36.164-1.742-107.082-25.906-151.242-11.373-20.783-23.303-33.418-33.687-35.713-12.661 5.499-41.653 20.948-72.118 42.22-25.578 17.859-59.864 45.245-77.95 74.29-.642 1.031-1.932 1.452-3.06.996-1.126-.456-1.762-1.655-1.507-2.843l58.753-273.187c-3.188-3.509-16.049-16.657-36.633-24.98-31.618-12.785-65.644-8.787-101.141 11.879z" fill="#4939bb"/><path d="m791.888 269.052c155.24-147.926 302.03-238.37 439.89-268.071 87.151 79.277 102.255 282.83 79.277 361.915-114.019-20.057-247.021-26.426-365.362-11.489z" fill="#4939bb"/><g fill="#1f201b"><path d="m680.879 292.351c-15.885 0-31.103-5.491-42.118-15.485-9.075-8.233-13.975-18.616-13.442-28.488.562-10.435 17.868-31.429 41.148-49.92 16.912-13.432 51.162-36.619 90.542-40.995 12.666-1.407 27.36.352 42.918 2.215 41.062 4.917 87.601 10.49 115.098-40.522 7.82-14.509 9.218-30.405 4.041-45.969-7.672-23.067-29.554-43.96-61.616-58.832-1.044-.484-1.622-1.618-1.402-2.747.221-1.129 1.184-1.962 2.333-2.018 42.238-2.051 80.784 13.386 103.134 41.298 19.993 24.969 25.343 57.127 15.47 92.999-7.263 33.241-27.941 63.84-58.233 86.167-31.346 23.103-70.508 35.076-110.333 33.736-5.969 1.647-81.174 22.3-117.11 27.77l-.376-2.471.376 2.471c-3.484.531-6.974.791-10.43.791zm86.116-130.397c-3.273 0-6.425.144-9.433.479-38.136 4.237-71.494 26.843-87.985 39.941-23.728 18.846-38.856 38.693-39.266 46.274-.45 8.363 3.854 17.298 11.81 24.516 12.31 11.168 30.418 16.197 48.435 13.455 36.953-5.625 116.103-27.528 116.898-27.748.247-.069.505-.099.758-.089 38.811 1.387 77.03-10.24 107.573-32.751 29.333-21.62 49.338-51.194 56.329-83.273.01-.044.021-.089.032-.132 9.453-34.289 4.427-64.93-14.535-88.611-19.544-24.409-52.214-38.825-88.769-39.575 28.276 15.067 47.635 35.119 54.968 57.17 5.623 16.906 4.106 34.167-4.384 49.92-12.992 24.103-31.148 38.404-55.507 43.722-21.081 4.602-43.197 1.954-64.587-.607-11.464-1.375-22.454-2.691-32.337-2.691z"/><path d="m1539.42 889.975-26.811-2.234 5.432-8.793c1.471-2.381.733-5.503-1.648-6.973-2.38-1.47-5.502-.733-6.972 1.648l-60.844 98.487-54.311 80.92-21.34 92.218c-1.39 6.007 6.7 9.337 9.941 4.091l86.189-139.513c4.644-7.517 7.469-16.013 8.252-24.814l4.171-46.882 7.162-11.593 12.831 24.624c.772 1.482 2.864 1.558 3.742.137l35.859-58.044c.845-1.368-.051-3.145-1.653-3.279z"/><path d="m1378.312 1154.448c-1.029 0-2.079-.203-3.103-.624-3.674-1.512-5.614-5.271-4.719-9.141l21.341-92.218c.068-.296.19-.577.359-.83l54.311-80.92 60.793-98.407c2.192-3.548 6.862-4.652 10.413-2.461 1.72 1.062 2.923 2.73 3.388 4.698.465 1.967.136 3.997-.927 5.717l-3.29 5.326 22.75 1.896c1.625.135 3.033 1.086 3.769 2.542.734 1.457.661 3.154-.196 4.542l-35.858 58.044c-.878 1.422-2.495 2.268-4.131 2.205-1.669-.062-3.185-1.02-3.956-2.501l-10.798-20.723-4.54 7.348-4.118 46.293c-.813 9.142-3.793 18.1-8.615 25.906l-86.189 139.513c-1.508 2.437-4.022 3.795-6.684 3.795zm18.287-100.407-21.237 91.77c-.416 1.797.632 2.93 1.75 3.39 1.12.461 2.66.392 3.629-1.177l86.189-139.513c4.416-7.148 7.144-15.351 7.889-23.721l4.171-46.882c.034-.387.159-.762.363-1.093l7.162-11.593c.473-.765 1.34-1.217 2.218-1.184.899.033 1.711.546 2.126 1.343l12.55 24.083 35.241-57.045-26.248-2.187c-.866-.072-1.633-.589-2.024-1.365-.392-.776-.352-1.7.105-2.44l5.432-8.793c.36-.583.472-1.272.314-1.939-.157-.667-.565-1.233-1.148-1.593-1.203-.742-2.789-.369-3.532.835l-60.844 98.487zm142.614-161.574h.01z"/><path d="m1655.274 595.109-76.455-145.076c-4.119-7.816-10.006-14.564-17.191-19.705l-38.277-27.391-27.329-51.858 20.976 39.802 27.729 1.444c1.668.087 2.796-1.677 2.017-3.155l-31.809-60.358c-.749-1.422-2.736-1.552-3.664-.239l-15.534 21.966-4.819-9.144c-1.305-2.476-4.369-3.425-6.844-2.12-2.475 1.305-3.424 4.368-2.119 6.844l53.973 102.414 42.153 87.868 68.623 65.196c4.469 4.247 11.445-1.033 8.57-6.488z"/><path d="m1650.438 605.635c-1.959 0-3.903-.749-5.457-2.225l-68.622-65.196c-.221-.209-.401-.457-.532-.731l-42.153-87.868-53.931-102.33c-1.943-3.691-.524-8.275 3.165-10.22 1.787-.942 3.838-1.132 5.767-.535 1.931.598 3.514 1.912 4.456 3.7l2.919 5.539 13.181-18.639c.94-1.332 2.487-2.066 4.102-1.957 1.628.106 3.054 1.031 3.814 2.473l31.81 60.359c.778 1.477.703 3.269-.196 4.676-.9 1.407-2.5 2.227-4.163 2.141l-23.336-1.215 4.026 7.641 37.796 27.047c7.462 5.34 13.668 12.454 17.947 20.573l76.456 145.076c1.852 3.514.934 7.643-2.233 10.041-1.461 1.104-3.143 1.65-4.816 1.65zm-70.302-70.729 68.288 64.879c1.34 1.271 2.846.943 3.81.213.965-.73 1.688-2.092.828-3.724l-76.456-145.076c-3.918-7.434-9.601-13.948-16.434-18.838l-38.276-27.391c-.316-.226-.575-.523-.757-.867l-6.333-12.017c-.007-.012-.014-.025-.021-.038l-20.976-39.802c-.049-.092-.091-.186-.127-.281-.057-.082-.109-.169-.157-.259l-4.819-9.144c-.319-.607-.856-1.052-1.511-1.255-.653-.202-1.349-.139-1.956.181-1.251.659-1.732 2.215-1.073 3.467l53.973 102.414zm-61.589-146.447 25.7 1.338-31.261-59.32-14.322 20.253z"/></g><path d="m795.182 283.81c-35.234 75.305-24.753 200.872-24.753 200.872-21.555 37.81-32.7 91.723-41.435 149.362-.019 16.34 101.422 48.511 107.55 31.344 6.526-19.286 12.282-37.73 12.282-37.73 53.59-72.508 68.353-163.543 55.888-258.636.001.001-74.297-160.516-109.532-85.212z" fill="#4939bb"/><path d="m690.931 289.089c-35.034 5.333-64.33-18.059-63.116-40.577.946-17.545 63.116-81.191 129.471-88.564 45.734-5.082 121.13 32.394 159.939-39.606 19.014-35.277 2.071-80.057-58.723-108.255 73.532-3.574 139.192 47.275 116.054 131.202-14.317 65.698-82.974 120.98-166.435 117.99.001-.001-79.659 22.097-117.19 27.81z" fill="#1f201b"/><path d="m697.651 223.491c-5.617 6.128-2.127 42.383 31.344 48-6.328 10.723-33.214 19.047-38.064 17.598 14.449 43.239 37.325 54.924 52.483 53.514 17.628-1.64 27.235-20.72 30.322-28.729l39.006-3.736c6.715 12.621 32.927 65.675 40.143 68.331 32.14 8.966 45.967-1.952 46.724-27.064l-49.68-72.854c-13.671-17.645-31.767-17.529-58.04-9.5l-3.216-13.007c14.319-8.563 10.501-26.974-1.776-29.271-5.481-1.026-11.251 3.088-11.785 11.022-.001-0-42.738 30.122-77.461-14.304z" fill="#feecf8"/><path d="m872.513 384.096c-5.866 0-12.612-1.074-20.301-3.219-.064-.018-.129-.039-.192-.062-5.829-2.146-17.953-23.886-36.923-60.712-1.495-2.902-2.782-5.4-3.785-7.316l-35.822 3.431c-3.284 7.896-13.158 27.137-31.845 28.875-9.383.871-19.456-2.896-28.374-10.612-11.021-9.535-20.008-24.541-26.711-44.598-.296-.885-.074-1.861.575-2.531.649-.671 1.617-.923 2.512-.656 3.306.969 24.475-5.309 32.875-13.588-18.797-4.77-26.301-18.782-29.149-27.065-3.389-9.851-3.201-20.272.436-24.239.496-.541 1.176-.84 1.941-.809.734.029 1.419.379 1.871.958 13.817 17.678 30.467 25.373 49.455 22.872 11.792-1.552 20.841-6.699 23.669-8.469.551-4.081 2.397-7.506 5.275-9.736 2.675-2.073 6.075-2.913 9.336-2.302 6.494 1.215 11.488 6.459 12.723 13.36 1.062 5.938-.702 13.989-8.553 19.497l2.159 8.733c24.392-7.123 43.681-7.65 58.22 11.116.03.04.061.081.089.123l49.68 72.854c.298.436.449.956.434 1.484-.389 12.922-4.204 22.135-11.338 27.384-4.743 3.486-10.787 5.227-18.257 5.227zm-18.814-7.994c15.607 4.331 27.081 3.906 34.106-1.263 5.693-4.189 8.812-11.825 9.274-22.702l-49.174-72.112c-11.659-15.004-26.653-17.33-55.287-8.581-.657.2-1.366.122-1.964-.216-.597-.339-1.028-.908-1.193-1.574l-3.217-13.008c-.264-1.067.2-2.182 1.144-2.746 7.002-4.187 8.604-10.671 7.769-15.343-.878-4.91-4.22-8.483-8.721-9.325-1.885-.353-3.783.124-5.354 1.34-2.027 1.571-3.262 4.197-3.478 7.392-.051.752-.438 1.441-1.054 1.875-.457.322-11.365 7.909-26.823 9.943-13.685 1.802-33.433-.626-51.416-21.54-.67 3.51-.537 9.413 1.788 16.173 2.685 7.805 10.062 21.381 29.309 24.611.812.136 1.505.664 1.853 1.41s.305 1.616-.113 2.326c-5.825 9.872-26.785 17.66-36.716 18.802 13.519 37.804 33.906 49.931 48.75 48.55 4.321-.402 19.127-3.547 28.221-27.139.341-.884 1.151-1.499 2.095-1.589l39.006-3.736c1.011-.101 1.971.422 2.445 1.314 1.081 2.031 2.665 5.106 4.593 8.849 7.117 13.816 28.723 55.76 34.157 58.289z" fill="#4939bb"/><path d="m854.161 331.491-12.79-55.616 23.897 5.446c13.673 15.433 20.313 36.886 25.146 59.887-10.766-4.178-23.904-7.943-36.253-9.717z" fill="#4939bb"/><path d="m852.884 378.47c22.536 27.549 53.783 39.528 88.851 44.681l-42.128-71.745z" fill="#1f201b"/><path d="m844.587 340.3s38.936 69.064 97.149 82.851c-46.882 5.633-110.992-26.527-137.006-65.617-26.016-39.091 9.962-38.927 39.857-17.234z" fill="#4939bb"/><path d="m941.738 425.651c-.19 0-.385-.022-.578-.068-30.701-7.271-55.932-29.768-71.69-47.36-16.997-18.974-26.657-35.981-27.061-36.696-.678-1.203-.253-2.727.949-3.405 1.203-.678 2.727-.254 3.406.949.384.681 39.095 68.276 95.548 81.647 1.344.318 2.175 1.665 1.856 3.009-.272 1.15-1.297 1.924-2.43 1.924z" fill="#feecf8"/><path d="m930.92 426.273c-29.222 0-64.731-12.304-93.669-32.948-1.124-.802-1.385-2.363-.583-3.487.803-1.125 2.363-1.384 3.487-.583 31.762 22.659 71.517 34.99 101.282 31.414 1.365-.165 2.616.813 2.78 2.184s-.813 2.616-2.185 2.781c-3.574.429-7.292.639-11.112.639z" fill="#feecf8"/><path d="m874.459 291.475c12.59 70.751 39.485 136.071 75.83 197.803-42.044 45.945-97.905 121.297-107.096 140.829s77.292 96.774 87.565 83.214 28.723-37.915 28.723-37.915c167.127-75.994 175.788-264.255 41.745-404.426-48.639-57.404-132.474-32.656-126.767 20.495z" fill="#4939bb"/><path d="m1061.034 349.984c-.868 0-1.712-.453-2.173-1.261-12.466-21.84-34.132-49.546-59.442-76.014-.954-.998-.919-2.58.079-3.535.997-.954 2.58-.919 3.534.079 25.58 26.75 47.512 54.812 60.171 76.991.685 1.199.268 2.726-.932 3.41-.391.224-.816.33-1.237.33z" fill="#feecf8"/><path d="m915.683 425.281c-.953 0-1.863-.548-2.28-1.472-19.646-43.527-33.576-87.903-41.404-131.896-.242-1.359.664-2.657 2.022-2.899 1.359-.242 2.658.664 2.899 2.023 7.756 43.586 21.563 87.565 41.039 130.715.568 1.259.009 2.739-1.25 3.307-.334.151-.682.222-1.026.222z" fill="#feecf8"/><path d="m843.19 632.608c-.356 0-.719-.077-1.062-.239-1.249-.588-1.785-2.077-1.197-3.327 4.108-8.729 17.468-28.636 35.735-53.252.824-1.108 2.388-1.341 3.498-.518 1.108.823 1.34 2.389.518 3.497-18.083 24.366-31.252 43.955-35.228 52.402-.426.906-1.326 1.437-2.264 1.437z" fill="#feecf8"/><path d="m714.812 314.81c-.145-5.731 4.32-7.408 9.447-7.439 3.935-7.322 11.945-8.646 18.328-9.029-3.447 19.022-15.83 26.17-27.775 16.468z" fill="#4939bb"/><path d="m791.888 269.052c106.954 62.184 212.146-10.837 205.507-146.667l-30.127 27.574c-83.05 44.396-181.402 91.715-175.38 119.093z" fill="#1f201b"/><path d="m869.048 293.959c-25.57 0-52.379-7.607-78.417-22.746-.585-.34-1.008-.904-1.17-1.561l-3.217-13.008c-.332-1.34.486-2.696 1.826-3.027 1.348-.332 2.696.487 3.027 1.827l2.962 11.975c46.808 26.87 95.979 28.671 135.052 4.902 44.456-27.042 69.05-83.048 65.786-149.814-.067-1.379.996-2.552 2.375-2.619 1.385-.067 2.552.996 2.619 2.375 3.354 68.626-22.135 126.32-68.182 154.33-19.057 11.594-40.39 17.366-62.661 17.366z" fill="#4939bb"/><path d="m733.395 587.103c25.021 25.112 25.021 64.326 25.021 64.326h-71.617l28.013-47.701s-6.438-41.737 18.583-16.625z" fill="#feecf8"/><path d="m758.417 653.929h-71.617c-.896 0-1.725-.48-2.17-1.258s-.439-1.735.015-2.508l27.567-46.944c-.722-5.209-2.422-22.075 5.133-25.897 4.399-2.225 10.229.395 17.821 8.016 25.458 25.55 25.751 64.447 25.751 66.091-0 1.38-1.12 2.5-2.5 2.5zm-67.25-5h64.652c-.52-8.901-3.788-39.577-24.194-60.061-8.091-8.12-11.245-7.476-12.023-7.083-3.572 1.807-3.495 13.935-2.318 21.562.088.569-.023 1.151-.315 1.647z" fill="#4939bb"/><path d="m812.742 310.139 31.845 30.161c-3.723 8.832-6.138 19.557-8.042 31.021l-31.815-60.415z" fill="#4939bb"/><path d="m836.543 373.821c-.916 0-1.774-.505-2.211-1.335l-29.702-56.402c-.644-1.222-.175-2.733 1.047-3.377 1.224-.644 2.734-.174 3.377 1.047l26.314 49.969c1.962-10.084 4.197-17.949 6.914-24.395.535-1.273 2.005-1.869 3.274-1.333 1.272.536 1.869 2.002 1.333 3.275-3.175 7.532-5.679 17.211-7.88 30.46-.176 1.059-1.008 1.887-2.067 2.058-.133.022-.266.033-.399.033z" fill="#feecf8"/><path d="m1065.979 968.35c-13.893 15.667-37.857 17.105-53.523 3.211l-427.23-378.866 50.312-56.735 427.23 378.866c15.667 13.894 17.104 37.857 3.211 53.524z" fill="#1f201b"/><path d="m508.176 140.233c-155.72-138.091-344.753-179.221-422.219-91.867l-50.425 56.862c-77.466 87.355-14.029 270.115 141.69 408.206s344.753 179.221 422.219 91.867l50.425-56.862c77.466-87.354 14.029-270.115-141.69-408.206zm92.074 415.032c-83.667 46.749-235.303 3.538-362.91-109.623s-188.638-258.543-152.228-347.199c83.657-46.791 235.315-3.6 362.946 109.583s188.645 258.588 152.192 347.239z" fill="#1f201b"/><path d="m481.366 653.735c-20.02 0-41.513-2.441-64.221-7.382-80.158-17.441-165.954-63.981-241.582-131.048-75.628-67.066-132.093-146.682-158.992-224.18-27.071-77.992-21.002-144.6 17.091-187.555l50.425-56.862c38.09-42.955 103.493-56.947 184.165-39.393 80.158 17.441 165.954 63.981 241.582 131.048 75.628 67.066 132.093 146.682 158.992 224.18 27.071 77.992 21.002 144.6-17.091 187.555l-50.425 56.862c-27.368 30.864-68.844 46.774-119.944 46.775zm-277.331-648.804c-49.645 0-89.817 15.334-116.208 45.094l-50.425 56.862c-36.839 41.543-42.56 106.39-16.108 182.598 26.623 76.702 82.589 155.571 157.587 222.079 74.997 66.508 159.991 112.641 239.326 129.903 78.827 17.151 142.524 3.717 179.363-37.825l50.425-56.862c36.839-41.542 42.56-106.39 16.107-182.598-26.623-76.702-82.589-155.571-157.587-222.079-74.996-66.507-159.99-112.641-239.325-129.903-22.357-4.864-43.5-7.269-63.155-7.269zm316.017 571.369c-26.347 0-55.187-4.482-85.492-13.484-66.765-19.831-137.395-60.78-198.879-115.304-61.483-54.524-110.584-119.751-138.256-183.666-27.449-63.402-32.643-122.481-14.626-166.353.215-.522.6-.957 1.092-1.232 41.4-23.156 100.679-25.077 166.915-5.413 66.773 19.824 137.415 60.774 198.91 115.308 61.494 54.534 110.598 119.772 138.263 183.697 27.443 63.411 32.622 122.494 14.583 166.364-.215.522-.601.956-1.093 1.232-22.458 12.547-50.184 18.851-81.417 18.851zm-432.957-476.099c-35.918 89.246 27.822 233.535 151.905 343.571 124.08 110.035 274.955 156.065 359.267 109.734 35.964-89.247-27.761-233.552-151.868-343.61s-274.997-156.07-359.304-109.695zm513.155 455.064h.01z" fill="#1f201b"/><path d="m599.44 607.801c-.59 0-1.182-.208-1.658-.63-1.032-.916-1.127-2.496-.211-3.529l50.425-56.862c.915-1.033 2.495-1.128 3.529-.212 1.032.916 1.127 2.496.211 3.529l-50.425 56.862c-.493.558-1.181.842-1.871.842z" fill="#4939bb"/><path d="m746.672 730.555c-13.122 8.304-26.809 6.383-34.551-10.592-9.619 7.784-24.312 1.17-29.086-13.406-9.895 4.804-23.605-3.883-24.704-20.683-14.858 1.19-28.851-14.141-15.319-43.321 5.031-10.849 11.048-18.163 16.596-21.957 13.45-9.199 23.489 2.981 21.368 12.16 10.292-8.158 21.981 2.333 20.76 18.674 9.902-8.681 22.979-1.044 20.426 20.658 6.833-10.468 16.172-6.8 20.881 7.427 2.62 7.915.47 17.72-.478 29.502 4.068 10.768 4.107 21.538 4.107 21.538z" fill="#ffbfc7"/><path d="m746.672 730.555c-13.122 8.304-26.809 6.383-34.551-10.592-9.619 7.784-24.312 1.17-29.086-13.406-9.895 4.804-23.605-3.883-24.704-20.683-14.858 1.19-28.851-14.141-15.319-43.321 5.031-10.849 11.048-18.163 16.596-21.957 13.45-9.199 23.489 2.981 21.368 12.16 10.292-8.158 21.981 2.333 20.76 18.674 9.902-8.681 22.979-1.044 20.426 20.658 6.833-10.468 16.172-6.8 20.881 7.427 2.62 7.915.47 17.72-.478 29.502 4.068 10.768 4.107 21.538 4.107 21.538z" fill="#feecf8"/><path d="m732.102 737.834c-2.075 0-4.098-.289-6.052-.87-6.025-1.793-11.134-6.379-14.897-13.334-4.077 2.276-8.817 2.76-13.632 1.339-6.953-2.052-12.774-7.644-15.948-15.188-4.339 1.231-9.117.552-13.477-1.984-6.455-3.754-10.841-10.886-12.017-19.368-6.715-.195-12.811-3.424-16.64-8.925-3.658-5.254-8.354-17.177 1.305-38.003 4.832-10.419 11.029-18.576 17.452-22.969 6.532-4.467 13.364-4.922 18.751-1.245 3.74 2.553 6.166 6.709 6.705 11.049 3.559-1.381 7.294-1.199 10.705.61 5.664 3.003 9.304 9.742 9.884 17.844 3.869-1.826 7.982-1.852 11.604.051 5.603 2.946 8.827 9.708 9.115 18.666 2.867-1.943 5.498-2.063 7.134-1.849 5.534.72 10.39 6.213 13.32 15.071 2.17 6.554 1.364 13.949.432 22.511-.261 2.395-.53 4.865-.745 7.427 3.984 10.878 4.068 21.429 4.07 21.88.003.86-.437 1.662-1.163 2.122-5.411 3.423-10.811 5.165-15.906 5.165zm-19.981-20.371c.191 0 .384.022.573.067.752.177 1.381.692 1.701 1.396 3.275 7.181 7.677 11.637 13.082 13.246 4.986 1.484 10.716.447 16.645-2.993-.165-3.168-.874-11.28-3.896-19.279-.13-.345-.183-.716-.153-1.084.228-2.828.521-5.517.804-8.117.87-7.982 1.621-14.876-.207-20.398-2.271-6.861-5.717-11.228-9.22-11.684-3.069-.397-5.608 2.41-7.193 4.838-.635.972-1.854 1.38-2.945.984-1.092-.395-1.767-1.49-1.631-2.642 1.412-12.006-2.257-18.477-6.161-20.529-3.102-1.631-6.794-.885-10.134 2.043-.763.669-1.854.811-2.765.357-.908-.453-1.452-1.411-1.377-2.423.697-9.334-3.127-15.706-7.228-17.88-3.049-1.618-6.329-1.149-9.486 1.352-.832.661-1.993.721-2.889.154-.898-.568-1.339-1.641-1.1-2.676.897-3.886-.958-8.418-4.412-10.776-3.646-2.489-8.302-2.046-13.109 1.243-5.69 3.893-11.28 11.331-15.739 20.946-8.606 18.56-4.782 28.669-1.737 33.043 3.264 4.687 8.711 7.205 14.59 6.734.664-.053 1.327.163 1.834.601s.816 1.06.86 1.728c.514 7.859 4.171 14.5 9.783 17.764 3.773 2.195 7.903 2.498 11.334.833.649-.315 1.405-.334 2.068-.052.664.282 1.175.837 1.399 1.523 2.326 7.103 7.508 12.618 13.524 14.394 4.229 1.248 8.353.484 11.612-2.154.45-.366 1.006-.559 1.573-.559z" fill="#4939bb"/><path d="m712.119 722.464c-1.102 0-2.111-.735-2.412-1.85-4.355-16.148 4.336-42.523 10.518-50.107.872-1.07 2.446-1.231 3.517-.358 1.07.872 1.231 2.447.358 3.517-4.902 6.015-13.535 30.926-9.564 45.645.359 1.333-.43 2.705-1.763 3.065-.219.059-.439.088-.654.088z" fill="#4939bb"/><path d="m683.033 709.057c-1.286 0-2.379-.986-2.488-2.291-2.506-29.823 15.631-52.683 19.292-56.963.897-1.05 2.478-1.172 3.524-.275 1.05.897 1.172 2.476.274 3.525-3.434 4.015-20.447 25.452-18.108 53.294.115 1.376-.906 2.585-2.282 2.7-.071.008-.142.01-.212.01z" fill="#4939bb"/><path d="m658.332 688.374c-1.381 0-2.5-1.119-2.5-2.5 0-21.318 12.428-46.132 23.581-55.07 1.078-.865 2.65-.689 3.515.388.863 1.077.689 2.651-.388 3.514-9.064 7.263-21.708 30.243-21.708 51.168 0 1.381-1.12 2.5-2.5 2.5z" fill="#4939bb"/><path d="m842.509 627.345c-26.487 8.659-63.251 21.668-88.297 55.31-12.665 17.012-15.711 45.22-13.413 59.007 3.314 19.883 15.064 27.702 22.979 21.83 3.319 20.426 17.362 24.511 21.191 18.128 2.809 14.553 15.319 21.957 23.152 15.585 1.103 10.968 9.018 21.181 20.763 17.862 6.128-7.66 7.915-17.106 11.736-38.508 15.18-17.893 31.157-33.748 39.189-68.812l30.677-22.11c-10.878-20.018-52.495-61.38-67.977-58.292z" fill="#feecf8"/><path d="m824.475 818.202c-3.293 0-6.407-.957-9.187-2.849-4.404-2.997-7.646-8.15-9.044-14.198-2.916 1.125-6.2 1.131-9.438-.045-5.988-2.177-10.844-7.767-13.252-15.027-1.712.783-3.747 1.014-5.881.604-5.555-1.066-12.703-6.81-15.693-19.427-2.694.944-5.612.851-8.494-.312-7.389-2.982-13.053-12.282-15.152-24.877-2.322-13.931.481-42.923 13.874-60.911 24.447-32.838 59.029-46.224 89.525-56.193.094-.031.19-.056.287-.075 4.509-.899 15.413.649 37.886 21.083 14.039 12.765 27.211 28.224 32.777 38.467.602 1.106.286 2.486-.734 3.222l-29.916 21.561c-7.47 31.751-21.566 48.108-35.204 63.932-1.29 1.497-2.58 2.994-3.865 4.505-3.645 20.407-5.544 30.737-12.127 38.965-.326.407-.771.702-1.272.844-1.729.489-3.432.731-5.09.731zm-16.353-23.498c.324 0 .65.063.959.191.85.353 1.437 1.143 1.528 2.058.611 6.07 3.481 11.537 7.492 14.266 2.756 1.875 5.893 2.425 9.334 1.637 5.242-6.952 7.022-16.004 10.725-36.738.077-.435.269-.841.555-1.178 1.438-1.695 2.883-3.372 4.327-5.048 13.986-16.228 27.196-31.556 34.332-62.705.136-.592.481-1.115.975-1.47l28.85-20.793c-5.811-9.67-18.06-23.796-30.655-35.25-14.672-13.34-27.439-20.942-33.411-19.904-29.728 9.725-63.381 22.766-86.914 54.376-11.979 16.091-15.219 43.502-12.952 57.103 2.133 12.791 7.645 19.267 12.092 21.062 2.465.995 4.86.707 6.932-.829.7-.52 1.621-.637 2.43-.309s1.388 1.054 1.527 1.915c1.89 11.632 7.575 17.767 12.37 18.687.897.172 3.114.379 4.21-1.445.534-.888 1.562-1.355 2.578-1.176 1.021.18 1.824.971 2.021 1.988 1.416 7.34 5.77 13.332 11.09 15.266 2.09.759 5.177 1.176 8.029-1.147.452-.366 1.01-.557 1.576-.557z" fill="#4939bb"/><path d="m763.775 765.992c-1.258 0-2.34-.946-2.481-2.225-2.439-22.032 1.828-45.033 10.873-58.596.765-1.149 2.318-1.459 3.467-.693s1.459 2.318.693 3.467c-8.432 12.643-12.382 34.339-10.064 55.272.152 1.372-.837 2.608-2.209 2.76-.095.009-.187.015-.279.015z" fill="#4939bb"/><path d="m784.966 784.119c-1.228 0-2.298-.904-2.473-2.154-3.822-27.345 7.306-54.068 10.807-61.606.583-1.252 2.068-1.797 3.32-1.214 1.253.582 1.796 2.068 1.215 3.32-6.915 14.889-13.276 38.157-10.391 58.809.191 1.367-.762 2.631-2.13 2.822-.116.015-.232.023-.348.023z" fill="#4939bb"/><path d="m808.119 799.704c-1.276 0-2.365-.973-2.486-2.269-1.532-16.464 3.777-41.428 12.349-58.068.632-1.228 2.14-1.71 3.367-1.078s1.71 2.14 1.078 3.367c-8.19 15.9-13.271 39.68-11.815 55.315.128 1.375-.883 2.593-2.258 2.721-.079.008-.158.012-.235.012z" fill="#4939bb"/><path d="m733.395 587.103c-14.298-15.867-45.447-28.633-55.66-11.782-10.07 16.615 36.153 29.981 36.153 29.981 15.893 5.301 11.397-5.24 19.507-18.199z" fill="#feecf8"/><path d="m713.889 607.802c-.229 0-.464-.032-.695-.099-.334-.096-8.271-2.408-16.953-6.335-12.054-5.451-19.33-11.201-21.629-17.088-1.341-3.433-.999-6.979.986-10.255 3.194-5.271 8.472-8.397 15.261-9.039 14.982-1.418 34.336 9.281 44.394 20.443.924 1.026.842 2.606-.184 3.531-1.026.924-2.605.843-3.531-.184-9.031-10.022-26.958-20.067-40.208-18.812-5.226.494-9.08 2.732-11.456 6.652-1.197 1.976-1.39 3.833-.604 5.844 3.687 9.448 26.741 17.958 35.313 20.439 1.326.384 2.091 1.77 1.707 3.096-.317 1.095-1.316 1.807-2.401 1.807z" fill="#4939bb"/><path d="m1517 393.382c-.897 0-1.766-.485-2.214-1.335l-21.26-40.342c-.644-1.221-.175-2.733 1.046-3.377 1.223-.643 2.733-.176 3.378 1.046l21.26 40.342c.644 1.221.175 2.733-1.046 3.377-.372.196-.772.289-1.164.289z" fill="#4939bb"/><path d="m1488.64 929.037c-.449 0-.902-.12-1.312-.373-1.174-.726-1.538-2.266-.812-3.441l23.968-38.795c.727-1.175 2.267-1.537 3.441-.813 1.174.726 1.538 2.266.812 3.441l-23.968 38.795c-.473.765-1.291 1.186-2.129 1.186z" fill="#4939bb"/><path d="m920.291 703.828-11.845-16.748c-.798-1.127-.529-2.687.598-3.485 1.128-.797 2.687-.529 3.484.598l11.845 16.748z" fill="#feecf8"/><path d="m599.44 607.801c-.59 0-1.182-.208-1.658-.63-1.032-.916-1.127-2.496-.211-3.529 36.839-41.542 42.56-106.39 16.107-182.598-26.623-76.702-82.589-155.571-157.587-222.079-74.997-66.507-159.991-112.641-239.326-129.903-78.824-17.151-142.523-3.718-179.363 37.825-.914 1.033-2.495 1.128-3.529.212-1.032-.916-1.127-2.496-.211-3.529 38.092-42.956 103.497-56.946 184.166-39.393 80.158 17.441 165.954 63.981 241.582 131.048s132.093 146.682 158.992 224.18c27.071 77.992 21.002 144.6-17.091 187.555-.493.557-1.181.841-1.871.841z" fill="#4939bb"/><path d="m470.041 633.282c-18.65 0-38.668-2.273-59.819-6.875-74.647-16.242-154.542-59.58-224.966-122.031-70.423-62.451-123.003-136.591-148.053-208.76-25.223-72.664-19.561-134.73 15.943-174.766 8.667-9.774 19.015-18.057 30.754-24.62 1.203-.673 2.729-.243 3.402.962s.242 2.729-.963 3.402c-11.249 6.289-21.158 14.22-29.453 23.573-71.082 80.157-12.008 249.04 131.688 376.468 143.694 127.429 318.428 165.887 389.513 85.73 8.665-9.772 15.57-21.097 20.525-33.661.508-1.284 1.956-1.916 3.243-1.408 1.284.507 1.915 1.958 1.408 3.243-5.17 13.11-12.382 24.934-21.437 35.144-25.511 28.766-64.167 43.599-111.785 43.599z" fill="#4939bb"/></svg>